<svg width="311" height="180" viewBox="0 0 311 180" fill="none" xmlns="http://www.w3.org/2000/svg">
<g opacity="0.5">
<path d="M273.269 116.584C273.909 117.221 274.722 117.654 275.607 117.828C276.492 118.003 277.409 117.911 278.242 117.565C279.076 117.219 279.787 116.634 280.288 115.883C280.789 115.133 281.056 114.251 281.056 113.349V65.9322C281.075 65.3216 280.971 64.7133 280.751 64.1435C280.531 63.5737 280.198 63.054 279.773 62.6153C279.348 62.1766 278.839 61.8277 278.276 61.5895C277.713 61.3513 277.109 61.2285 276.498 61.2285C275.887 61.2285 275.282 61.3513 274.719 61.5895C274.157 61.8277 273.648 62.1766 273.223 62.6153C272.797 63.054 272.465 63.5737 272.244 64.1435C272.024 64.7133 271.92 65.3216 271.939 65.9322V78.2076C271.936 80.0929 271.184 81.8997 269.85 83.2315C268.516 84.5634 266.707 85.3113 264.822 85.3113H261.677C260.301 85.3162 258.937 85.0478 257.665 84.5218C256.393 83.9958 255.239 83.2226 254.268 82.247L246.557 74.5367C245.747 73.7306 244.65 73.2781 243.506 73.2781C242.363 73.2781 241.266 73.7306 240.456 74.5367L232.745 82.247C230.778 84.2047 228.116 85.306 225.34 85.3113H217.963C216.679 85.3102 215.449 84.8001 214.541 83.8929C213.633 82.9858 213.121 81.7557 213.119 80.4722V68.9067C211.726 66.4265 209.457 63.6587 206.698 63.8429C205.413 63.9328 204.24 65.6402 203.014 66.3816V80.4722C203.013 81.7552 202.502 82.9854 201.595 83.8927C200.688 84.7999 199.458 85.3102 198.175 85.3113H183.114C182.194 85.3113 181.276 85.2225 180.373 85.0463C177.055 84.4361 174.069 82.6472 171.966 80.0094C169.998 77.515 167.49 75.4991 164.631 74.113C161.771 72.727 158.635 72.007 155.458 72.007C152.281 72.007 149.145 72.727 146.285 74.113C143.426 75.4991 140.918 77.515 138.95 80.0094C137.617 81.6811 135.921 83.0274 133.99 83.946C132.06 84.8646 129.945 85.3315 127.807 85.3113H112.759C112.124 85.3091 111.494 85.1871 110.904 84.9519C110.015 84.5834 109.256 83.9599 108.722 83.1602C108.188 82.3605 107.902 81.4204 107.902 80.4587V66.422C107.897 65.6611 107.718 64.9114 107.381 64.2293C107.099 64.455 106.743 64.5669 106.383 64.5428C106.023 64.5186 105.685 64.3603 105.435 64.099C104.482 63.1888 103.212 62.685 101.894 62.6942C100.576 62.7034 99.3126 63.2249 98.372 64.1484C98.0051 64.8505 97.8112 65.6299 97.806 66.422V80.4722C97.8036 81.7557 97.2923 82.9858 96.3843 83.8929C95.4764 84.8001 94.2458 85.3102 92.9623 85.3113H85.5845C84.1309 85.3095 82.6936 85.0034 81.3653 84.4127C80.2667 83.9061 79.2144 83.3047 78.2202 82.6154C76.2492 81.399 74.5326 79.8121 73.1653 77.9425C73.1361 77.909 73.1145 77.8696 73.1021 77.8269C73.0897 77.7842 73.0868 77.7393 73.0935 77.6954L72.9137 77.4842C72.6751 77.4114 72.4526 77.294 72.2577 77.1382C70.0111 75.341 66.9467 72.8742 64.116 75.2466C64.0379 75.3151 63.9445 75.3638 63.8437 75.3888C63.7429 75.4138 63.6375 75.4144 63.5364 75.3904L56.6708 82.2605C54.7008 84.2176 52.0384 85.3187 49.2616 85.3248H46.1163C44.231 85.3248 42.4228 84.5768 41.0884 83.245C39.7541 81.9132 39.0027 80.1064 38.9991 78.2211V65.9322C38.9991 64.7233 38.5188 63.5639 37.664 62.709C36.8091 61.8542 35.6498 61.3739 34.4408 61.3739C33.2319 61.3739 32.0724 61.8542 31.2175 62.709C30.3626 63.5639 29.8825 64.7233 29.8825 65.9322V113.349C29.8855 114.566 30.3701 115.732 31.2304 116.593C31.8712 117.226 32.6849 117.656 33.5694 117.829C34.4539 118.001 35.3696 117.908 36.2013 117.561C37.033 117.214 37.7436 116.63 38.2439 115.88C38.7441 115.131 39.0115 114.25 39.0126 113.349V101.087C39.0149 99.2001 39.7656 97.3911 41.0998 96.0569C42.434 94.7227 44.243 93.9721 46.1298 93.9697H49.275C52.0567 93.976 54.7227 95.0843 56.6889 97.0521L64.3947 104.762C65.2065 105.566 66.3029 106.017 67.4455 106.017C68.588 106.017 69.6845 105.566 70.4964 104.762L78.2066 97.0521C79.1747 96.0732 80.3282 95.2969 81.5995 94.7684C82.8708 94.24 84.2346 93.97 85.6114 93.9742H92.9892C94.2751 93.9778 95.5071 94.4911 96.415 95.4016C97.323 96.3121 97.8329 97.5455 97.8329 98.8314V113.007C97.856 114.294 98.38 115.52 99.2932 116.427C99.9973 117.137 100.897 117.622 101.877 117.82C102.858 118.018 103.875 117.92 104.8 117.537C105.724 117.155 106.514 116.507 107.069 115.675C107.624 114.842 107.919 113.864 107.916 112.864V98.8269C107.917 97.539 108.429 96.3043 109.34 95.3937C110.25 94.483 111.485 93.9709 112.773 93.9697H127.82C129.959 93.951 132.074 94.4191 134.006 95.3384C135.937 96.2577 137.634 97.6043 138.968 99.2762C140.722 101.5 142.908 103.346 145.394 104.704C147.88 106.061 150.615 106.902 153.435 107.175C156.254 107.449 159.099 107.149 161.8 106.294C164.5 105.439 167 104.047 169.149 102.201C170.192 101.333 171.139 100.355 171.975 99.2852C173.309 97.6115 175.006 96.2632 176.938 95.3424C178.871 94.4215 180.987 93.9521 183.127 93.9697H198.193C199.478 93.9733 200.71 94.4867 201.617 95.3974C202.524 96.308 203.033 97.5414 203.032 98.8269V112.859C203.027 113.522 203.155 114.179 203.409 114.791C203.663 115.403 204.037 115.958 204.51 116.422C205.215 117.131 206.115 117.615 207.096 117.812C208.077 118.009 209.094 117.911 210.018 117.529C210.943 117.148 211.733 116.5 212.289 115.669C212.845 114.837 213.142 113.859 213.141 112.859V98.8269C213.141 97.541 213.651 96.3076 214.559 95.3971C215.467 94.4866 216.699 93.9733 217.985 93.9697H225.363C228.145 93.976 230.81 95.0843 232.777 97.0521L240.478 104.762C241.291 105.567 242.388 106.018 243.531 106.018C244.675 106.018 245.772 105.567 246.584 104.762L254.29 97.0521C255.259 96.0728 256.413 95.2964 257.685 94.7679C258.957 94.2395 260.322 93.9697 261.699 93.9742H264.845C266.732 93.9766 268.54 94.7272 269.875 96.0614C271.209 97.3956 271.959 99.2045 271.962 101.091V113.349C271.956 113.948 272.068 114.542 272.293 115.097C272.517 115.652 272.849 116.157 273.269 116.584ZM167.787 79.9824C160.782 75.1792 150.565 76.954 143.25 79.8342C143.151 79.8746 143.102 79.7398 143.156 79.6769C149.496 71.8902 162.62 70.3535 168.048 79.7173C168.142 79.8791 167.972 80.0948 167.787 79.9824Z" fill="#F8F5EF"/>
<path d="M303.1 42.0203H280.05C279.203 42.0156 278.391 41.6871 277.779 41.1021C277.168 40.5172 276.803 39.7203 276.76 38.875C276.752 38.4594 276.827 38.0463 276.981 37.6603C277.136 37.2743 277.366 36.9234 277.659 36.6285C278.012 36.2625 278.434 35.9707 278.901 35.7701C279.367 35.5694 279.87 35.4641 280.378 35.4602C281.76 35.459 283.085 34.9095 284.062 33.9323C285.039 32.9551 285.589 31.6301 285.59 30.2481V6.70384C285.587 4.9266 284.88 3.22284 283.624 1.96614C282.367 0.70944 280.663 0.00237758 278.886 0H32.0257C30.2489 0.00237981 28.5455 0.709586 27.2895 1.96641C26.0336 3.22324 25.3276 4.92701 25.3264 6.70384V30.2481C25.3276 31.6301 25.8771 32.9551 26.8543 33.9323C27.8315 34.9095 29.1565 35.459 30.5385 35.4602C31.0429 35.4663 31.541 35.5728 32.0039 35.7733C32.4667 35.9739 32.8851 36.2646 33.2344 36.6285C33.5255 36.9201 33.755 37.2673 33.9093 37.6494C34.0637 38.0314 34.1397 38.4406 34.133 38.8526C34.1026 39.6901 33.7501 40.4837 33.149 41.0677C32.8485 41.3732 32.4895 41.6149 32.0934 41.7786C31.6974 41.9422 31.2725 42.0244 30.844 42.0203H7.79392C5.93089 42.0227 4.1449 42.7638 2.82753 44.0812C1.51017 45.3985 0.768979 47.1846 0.766602 49.0476V130.244C0.770135 131.168 0.955604 132.082 1.31248 132.935C1.66936 133.787 2.1907 134.561 2.84659 135.212C3.50248 135.862 4.2801 136.378 5.13514 136.728C5.99019 137.078 6.90582 137.257 7.82985 137.253H30.8799C31.7262 137.258 32.5387 137.587 33.1504 138.171C33.762 138.756 34.1264 139.553 34.1689 140.399C34.1776 140.814 34.1027 141.227 33.9483 141.613C33.7939 141.999 33.5633 142.35 33.2703 142.645C32.921 143.009 32.5027 143.3 32.0398 143.5C31.577 143.701 31.0788 143.807 30.5744 143.813C29.1924 143.815 27.8674 144.364 26.8902 145.341C25.913 146.319 25.3635 147.644 25.3623 149.025V172.57C25.3635 174.347 26.0696 176.05 27.3256 177.307C28.5816 178.564 30.2848 179.271 32.0616 179.274H179.995C180.492 179.442 181.031 179.442 181.528 179.274H278.94C280.717 179.271 282.421 178.564 283.677 177.308C284.934 176.051 285.641 174.347 285.644 172.57V149.025C285.642 147.644 285.093 146.319 284.116 145.341C283.138 144.364 281.813 143.815 280.432 143.813C279.923 143.81 279.421 143.704 278.954 143.504C278.488 143.303 278.066 143.011 277.713 142.645C277.422 142.353 277.193 142.006 277.039 141.624C276.884 141.242 276.808 140.833 276.815 140.421C276.845 139.583 277.197 138.79 277.798 138.206C278.099 137.901 278.458 137.659 278.854 137.495C279.25 137.332 279.675 137.249 280.104 137.253H303.154C305.017 137.251 306.803 136.51 308.12 135.192C309.437 133.875 310.179 132.089 310.181 130.226V49.0476C310.18 48.1206 309.995 47.2029 309.638 46.3473C309.281 45.4917 308.759 44.7151 308.101 44.062C307.443 43.409 306.662 42.8925 305.804 42.5421C304.946 42.1917 304.027 42.0144 303.1 42.0203ZM221.634 25.4674L204.685 58.4204C203.445 58.9416 202.346 59.7483 201.477 60.7748L199.788 63.9201L199.644 64.2885C199.464 64.9795 199.375 65.6909 199.379 66.4048V68.7008L192.716 81.6547H183.114C182.607 81.6502 182.101 81.6096 181.599 81.5334L210.356 25.3685C214.112 25.373 217.846 25.4224 221.634 25.4674ZM179.133 173.837H133.131C137.942 168.939 142.016 163.37 145.227 157.302C145.326 157.121 145.402 156.93 145.456 156.731L153.993 156.88H154.29C165.106 157.059 175.92 157.161 186.731 157.185C186.129 158.215 185.582 159.275 185.091 160.362C182.805 164.715 180.815 169.217 179.133 173.837ZM89.1386 173.837C94.4147 168.381 99.0296 162.323 102.888 155.788C104.739 155.848 106.592 155.9 108.446 155.945C104.726 161.581 101.578 167.575 99.0505 173.837H89.1386ZM83.5132 20.6192C83.5131 20.5745 83.4998 20.5308 83.4752 20.4935C83.4506 20.4561 83.4156 20.4268 83.3746 20.4092C83.3335 20.3915 83.2881 20.3862 83.244 20.394C83.2 20.4018 83.1592 20.4223 83.1266 20.453L82.9964 20.6282C81.289 20.6552 79.586 20.6866 77.8786 20.7271C79.8418 17.3367 81.631 13.8484 83.2391 10.2759C83.5221 9.72775 85.0362 7.35535 85.9349 5.45473H154.231C152.645 7.50362 151.365 9.90748 149.954 11.9743C147.95 14.9174 145.685 17.7481 143.753 20.7406C123.669 20.5294 103.58 20.3002 83.4996 20.6192H83.5132ZM172.604 5.45473C171.053 7.46451 169.607 9.55367 168.273 11.7137C165.786 14.4583 163.746 17.5773 162.229 20.9562L159.412 20.9203C160.338 19.3252 161.151 17.6672 161.987 16.2743C164.101 12.8387 165.896 9.21711 167.352 5.45473H172.604ZM200.848 5.45473C198.812 7.62184 196.968 9.96102 195.335 12.4461C193.21 15.3263 191.04 18.2873 189.157 21.3606L185.616 21.3067C187.343 19.1007 188.934 16.7914 190.379 14.3917C192.376 11.5768 194.112 8.5854 195.564 5.45473H200.848ZM210.212 5.45473C207.853 8.48763 205.458 11.4936 203.171 14.5849C201.545 16.7865 199.5 19.0421 198.022 21.4999L194.931 21.455C196.108 19.6577 197.231 17.82 198.35 16.0047C200.736 12.7895 202.623 9.23281 203.948 5.45473H210.212ZM264.822 93.9705H261.677C260.299 93.966 258.935 94.2358 257.663 94.7642C256.391 95.2926 255.237 96.0691 254.268 97.0483L246.562 104.759C245.749 105.563 244.652 106.014 243.509 106.014C242.365 106.014 241.268 105.563 240.456 104.759L232.754 97.0483C230.788 95.0806 228.122 93.9723 225.34 93.966H217.963C216.677 93.9696 215.445 94.4829 214.537 95.3934C213.629 96.3039 213.119 97.5373 213.119 98.8231V112.855C213.119 113.856 212.823 114.833 212.267 115.665C211.711 116.496 210.92 117.144 209.996 117.526C209.071 117.907 208.054 118.006 207.074 117.809C206.093 117.612 205.193 117.128 204.488 116.418C204.015 115.954 203.641 115.399 203.387 114.787C203.133 114.175 203.004 113.518 203.009 112.855V98.8276C203.011 97.5422 202.502 96.3088 201.594 95.3982C200.687 94.4875 199.456 93.9741 198.17 93.9705H183.114C180.973 93.9529 178.857 94.4222 176.925 95.3431C174.993 96.264 173.296 97.6123 171.962 99.2859C171.126 100.356 170.178 101.333 169.135 102.202C166.987 104.048 164.487 105.44 161.786 106.295C159.086 107.15 156.24 107.449 153.421 107.176C150.602 106.903 147.867 106.062 145.381 104.705C142.895 103.347 140.709 101.501 138.955 99.2769C137.62 97.6051 135.923 96.2585 133.992 95.3392C132.061 94.4198 129.946 93.9518 127.807 93.9705H112.759C111.471 93.9717 110.237 94.4838 109.326 95.3944C108.415 96.3051 107.903 97.5398 107.902 98.8276V112.86C107.905 113.86 107.61 114.839 107.055 115.671C106.501 116.503 105.711 117.152 104.786 117.534C103.862 117.916 102.844 118.014 101.864 117.816C100.883 117.619 99.9837 117.133 99.2796 116.423C98.3664 115.517 97.8426 114.29 97.8194 113.004V98.8276C97.8195 97.5418 97.3096 96.3084 96.4016 95.3979C95.4936 94.4874 94.2616 93.9741 92.9758 93.9705H85.598C84.2212 93.9663 82.8574 94.2363 81.5861 94.7647C80.3148 95.2932 79.1613 96.0694 78.1932 97.0483L70.4694 104.759C69.6575 105.563 68.5612 106.014 67.4186 106.014C66.276 106.014 65.1795 105.563 64.3676 104.759L56.6618 97.0483C54.6956 95.0806 52.0298 93.9723 49.2481 93.966H46.1028C44.216 93.9684 42.407 94.719 41.0728 96.0532C39.7386 97.3874 38.9881 99.1963 38.9857 101.083V113.35C39.0049 113.96 38.9011 114.569 38.6806 115.138C38.4602 115.708 38.1276 116.228 37.7024 116.667C37.2772 117.105 36.7682 117.454 36.2056 117.692C35.643 117.931 35.0382 118.053 34.4272 118.053C33.8163 118.053 33.2116 117.931 32.6491 117.692C32.0865 117.454 31.5774 117.105 31.1522 116.667C30.7271 116.228 30.3945 115.708 30.174 115.138C29.9536 114.569 29.8497 113.96 29.8689 113.35V65.933C29.8689 64.7241 30.3492 63.5646 31.2041 62.7098C32.0589 61.8549 33.2183 61.3747 34.4272 61.3747C35.6362 61.3747 36.7957 61.8549 37.6505 62.7098C38.5054 63.5646 38.9857 64.7241 38.9857 65.933V78.2084C38.9893 80.0937 39.7407 81.9005 41.075 83.2323C42.4094 84.5641 44.2176 85.3121 46.1028 85.3121H49.2481C52.025 85.306 54.6874 84.2049 56.6573 82.2478L63.523 75.3777C63.6241 75.4017 63.7293 75.4011 63.8301 75.3761C63.931 75.3511 64.0244 75.3023 64.1026 75.2339C66.9333 72.8615 69.9841 75.3462 72.2442 77.1255C72.439 77.2813 72.6616 77.3987 72.9001 77.4715L73.0799 77.6827C73.0732 77.7266 73.0761 77.7715 73.0885 77.8142C73.101 77.8569 73.1225 77.8963 73.1518 77.9298C74.5278 79.804 76.2554 81.3927 78.2381 82.6072C79.2324 83.2965 80.2847 83.8979 81.3833 84.4045C82.7115 84.9952 84.1488 85.3013 85.6025 85.3031H92.9803C94.2638 85.3019 95.4943 84.7919 96.4023 83.8847C97.3103 82.9776 97.8216 81.7475 97.824 80.464V66.4228C97.8291 65.6307 98.0231 64.8512 98.39 64.1492C99.3306 63.2257 100.594 62.7042 101.912 62.695C103.23 62.6857 104.5 63.1895 105.453 64.0998C105.703 64.3611 106.041 64.5194 106.401 64.5435C106.761 64.5676 107.117 64.4558 107.399 64.2301C107.736 64.9121 107.914 65.6619 107.92 66.4228V80.473C107.92 81.4347 108.206 82.3747 108.74 83.1745C109.274 83.9742 110.033 84.5976 110.922 84.9661C111.512 85.2014 112.142 85.3233 112.777 85.3256H127.825C129.963 85.3458 132.077 84.8789 134.008 83.9602C135.939 83.0416 137.635 81.6954 138.968 80.0237C140.936 77.5293 143.444 75.5133 146.303 74.1273C149.162 72.7413 152.299 72.0212 155.476 72.0212C158.653 72.0212 161.789 72.7413 164.649 74.1273C167.508 75.5133 170.016 77.5293 171.984 80.0237C174.087 82.6615 177.073 84.4503 180.391 85.0605C181.294 85.2368 182.212 85.3256 183.132 85.3256H198.197C199.48 85.3244 200.71 84.8142 201.618 83.9069C202.525 82.9997 203.035 81.7695 203.036 80.4865V66.3823C204.263 65.6589 205.436 63.9335 206.721 63.8437C209.48 63.6595 211.749 66.4273 213.141 68.9075V80.473C213.144 81.7564 213.655 82.9866 214.563 83.8937C215.471 84.8009 216.702 85.3109 217.985 85.3121H225.363C228.139 85.3068 230.8 84.2055 232.768 82.2478L240.478 74.5375C241.289 73.7313 242.386 73.2788 243.529 73.2788C244.672 73.2788 245.769 73.7313 246.58 74.5375L254.29 82.2478C255.261 83.2233 256.416 83.9965 257.688 84.5225C258.959 85.0486 260.323 85.3169 261.699 85.3121H264.845C266.73 85.3121 268.538 84.5641 269.872 83.2323C271.207 81.9005 271.958 80.0937 271.962 78.2084V65.933C271.943 65.3224 272.046 64.7141 272.267 64.1443C272.487 63.5745 272.82 63.0548 273.245 62.6161C273.67 62.1773 274.179 61.8285 274.742 61.5903C275.305 61.3521 275.909 61.2293 276.52 61.2293C277.131 61.2293 277.736 61.3521 278.298 61.5903C278.861 61.8285 279.37 62.1773 279.795 62.6161C280.22 63.0548 280.553 63.5745 280.773 64.1443C280.994 64.7141 281.098 65.3224 281.078 65.933V113.35C281.098 113.96 280.994 114.569 280.773 115.138C280.553 115.708 280.22 116.228 279.795 116.667C279.37 117.105 278.861 117.454 278.298 117.692C277.736 117.931 277.131 118.053 276.52 118.053C275.909 118.053 275.305 117.931 274.742 117.692C274.179 117.454 273.67 117.105 273.245 116.667C272.82 116.228 272.487 115.708 272.267 115.138C272.046 114.569 271.943 113.96 271.962 113.35V101.088C271.961 100.151 271.775 99.2247 271.416 98.3603C271.056 97.4958 270.53 96.7107 269.867 96.0498C269.204 95.3888 268.417 94.865 267.551 94.5082C266.686 94.1515 265.758 93.9687 264.822 93.9705ZM145.124 152.831L168.488 107.185C169.542 106.535 170.544 105.805 171.485 105.001C172.719 103.976 173.838 102.821 174.824 101.555C175.824 100.323 177.089 99.3313 178.523 98.6525C179.958 97.9737 181.526 97.6251 183.114 97.6324H184.515L156.11 152.813H154.011C151.037 152.819 148.074 152.819 145.124 152.813V152.831ZM186.708 10.5455C183.903 13.7027 181.647 17.3084 180.036 21.2123L177.394 21.1719C178.742 19.0331 179.865 16.7281 180.939 14.6658C182.602 11.7669 183.896 8.67093 184.79 5.45024H190.676C189.265 7.08127 187.98 8.82911 186.708 10.5455ZM176.329 12.8505C174.42 15.4975 172.65 18.2421 171.027 21.073L167.504 21.0191C169.122 18.4176 170.735 15.816 172.37 13.2234C174.219 10.8579 175.72 8.24038 176.828 5.45024H181.388C179.563 7.82088 177.874 10.2931 176.329 12.855V12.8505ZM157.907 13.8974C156.297 16.1262 154.816 18.4455 153.472 20.8439L151.783 20.8214L148.687 20.79C150.309 18.57 151.809 16.2631 153.18 13.8795C154.926 11.2686 156.311 8.43308 157.296 5.45024H163.973C161.756 8.11706 159.736 10.9418 157.929 13.9019L157.907 13.8974ZM113.919 156.098C115.869 156.147 117.819 156.188 119.76 156.233C118.097 158.708 116.664 161.386 115.145 163.871C113.027 166.971 111.29 170.314 109.969 173.828H102.084C106.505 168.25 110.464 162.321 113.919 156.098ZM118.412 166.828C120.962 163.493 123.293 159.996 125.39 156.358L128.953 156.43C127.506 158.416 126.234 160.56 124.949 162.541C122.46 166.015 120.462 169.816 119.014 173.837H113.033C114.999 171.639 116.795 169.296 118.407 166.828H118.412ZM127.74 166.131C130.337 163.076 132.757 159.875 134.987 156.543L140.208 156.641C137.962 160.007 135.917 163.543 133.778 166.976C132.385 169.222 130.898 171.469 129.649 173.841H121.44C123.72 171.425 125.824 168.848 127.735 166.131H127.74ZM180.31 152.764H176.059L199.424 106.799V112.851C199.426 113.523 199.505 114.192 199.658 114.846C195.119 118.44 192.837 126.528 190.442 131.354C186.35 138.115 182.963 145.279 180.337 152.732L180.31 152.764ZM218.026 81.6727H217.994C217.676 81.6715 217.372 81.5447 217.147 81.32C216.922 81.0952 216.796 80.7908 216.795 80.473V72.5515L240.703 25.4764C242.545 25.4404 244.386 25.3865 246.225 25.3146C240.725 33.9595 236.34 43.6199 231.73 52.723C227.138 61.7094 220.596 71.5001 218.084 81.2952C218.045 81.4181 218.018 81.5445 218.003 81.6727H218.026ZM206.159 21.6212L203.98 21.5898C204.91 20.2418 205.777 18.8175 206.631 17.5459C209.241 13.6458 211.475 9.57948 213.703 5.46372H218.196C215.298 8.87864 212.723 12.5548 210.504 16.4451C209.273 18.0267 207.669 19.7655 206.137 21.6212H206.159ZM30.799 172.592V149.282C33.2194 149.205 35.5148 148.188 37.1974 146.446C38.0079 145.626 38.6426 144.649 39.0629 143.575C39.4832 142.502 39.6801 141.353 39.6417 140.201C39.5412 137.948 38.5775 135.821 36.9503 134.259C35.3231 132.698 33.1573 131.824 30.9024 131.817H15.1987C18.6765 124.956 21.642 117.766 24.6345 110.699C24.6438 110.673 24.6438 110.645 24.6346 110.619C24.6254 110.594 24.6075 110.572 24.584 110.558C24.5605 110.544 24.533 110.539 24.5061 110.543C24.4792 110.548 24.4547 110.561 24.4367 110.582C19.6412 117.248 15.4959 124.359 12.058 131.817H7.8389C7.63171 131.819 7.42608 131.78 7.2342 131.702C7.04231 131.624 6.86801 131.508 6.7215 131.361C6.57499 131.215 6.45921 131.041 6.38103 130.849C6.30285 130.657 6.26385 130.451 6.26626 130.244V49.0476C6.26385 48.8404 6.30285 48.6349 6.38103 48.443C6.45921 48.2511 6.57499 48.0768 6.7215 47.9303C6.86801 47.7837 7.04231 47.668 7.2342 47.5898C7.42608 47.5116 7.63171 47.4726 7.8389 47.475H30.889C32.0337 47.4822 33.1684 47.2605 34.2262 46.823C35.2841 46.3855 36.2439 45.741 37.0491 44.9274C38.6189 43.3782 39.5408 41.29 39.6281 39.0862C39.6643 37.9374 39.4662 36.7932 39.046 35.7233C38.6258 34.6534 37.9923 33.6803 37.1839 32.8632C35.5027 31.1196 33.2066 30.1021 30.7856 30.028V6.70384C30.7856 6.5398 30.8178 6.37737 30.8806 6.22582C30.9434 6.07427 31.0354 5.93658 31.1514 5.82059C31.2674 5.7046 31.4051 5.61259 31.5566 5.54982C31.7082 5.48704 31.8707 5.45473 32.0347 5.45473H82.6011C81.2935 7.40927 80.26 9.70978 79.2042 11.543C77.2133 14.4817 75.4699 17.5807 73.992 20.8079C62.2109 21.109 50.4433 21.6302 38.6891 22.4929C38.6139 22.502 38.5446 22.5383 38.4944 22.595C38.4441 22.6518 38.4164 22.7249 38.4164 22.8007C38.4164 22.8764 38.4441 22.9496 38.4944 23.0063C38.5446 23.063 38.6139 23.0994 38.6891 23.1085C46.1748 23.7195 53.6649 24.1868 61.155 24.5508C58.5446 28.1183 56.4819 32.0558 55.0353 36.233C55.021 36.2937 55.0265 36.3574 55.0509 36.4147C55.0754 36.4721 55.1176 36.5201 55.1713 36.5517C55.2251 36.5834 55.2876 36.597 55.3496 36.5906C55.4116 36.5842 55.4699 36.5581 55.5161 36.5161C58.7062 32.7149 61.8065 28.8463 64.9518 25.0091C65.0178 24.925 65.0779 24.8364 65.1315 24.744L69.9302 24.9327C67.3843 28.8003 65.0401 32.7971 62.9073 36.907C59.9393 41.6923 57.453 46.7599 55.4847 52.0356C55.4726 52.0807 55.4758 52.1285 55.4938 52.1715C55.5119 52.2146 55.5435 52.2505 55.5841 52.2736C55.6246 52.2967 55.6717 52.3057 55.7179 52.2992C55.7641 52.2927 55.8069 52.2711 55.8395 52.2378C59.087 48.1116 62.0332 43.7569 64.6552 39.2076C67.8846 34.6485 70.8765 29.9259 73.6191 25.0585C75.614 25.1274 77.6121 25.1873 79.613 25.2382C75.7175 30.9985 72.388 37.3114 68.8654 43.211C63.8762 50.6761 59.5263 58.5492 55.862 66.7463C55.8207 66.8465 55.8171 66.9584 55.8517 67.0611C55.8864 67.1639 55.9571 67.2506 56.0507 67.3054C56.1443 67.3601 56.2545 67.3792 56.361 67.359C56.4676 67.3388 56.5633 67.2808 56.6304 67.1956C61.8828 59.9158 66.5494 52.2308 70.5862 44.213C74.1179 37.9899 78.1662 31.7758 81.3698 25.3011C98.39 25.7505 115.428 25.7504 132.457 25.7504C129.361 30.7626 126.657 36.0068 124.37 41.4362C120.779 47.5952 117.589 53.9799 114.822 60.5502C114.534 61.341 115.72 62.0599 116.268 61.3904C120.719 55.3066 124.557 48.7972 127.726 41.9574C130.954 36.902 133.521 31.4538 135.364 25.746H141.655L112.4 81.6412L112.26 81.6053C112.041 81.5124 111.854 81.3575 111.721 81.1595C111.589 80.9615 111.517 80.7292 111.515 80.4909V66.4228C111.515 64.1175 110.599 61.9066 108.969 60.2766C107.339 58.6465 105.128 57.7307 102.823 57.7307C100.517 57.7307 98.3065 58.6465 96.6764 60.2766C95.0463 61.9066 94.1305 64.1175 94.1305 66.4228V80.473C94.1293 80.7908 94.0025 81.0952 93.7778 81.32C93.5531 81.5447 93.2486 81.6715 92.9308 81.6727H85.553C84.6558 81.6741 83.7673 81.4982 82.9384 81.1551C82.1094 80.8119 81.3565 80.3083 80.7229 79.6732L73.0081 71.9539C71.5137 70.4733 69.4952 69.6427 67.3916 69.6427C65.288 69.6427 63.2694 70.4733 61.7751 71.9539L54.0602 79.6687C52.7758 80.9444 51.0405 81.6628 49.2302 81.6682H46.0849C45.1653 81.6682 44.2831 81.3035 43.632 80.654C42.9809 80.0046 42.614 79.1235 42.6116 78.2039V65.933C42.6372 64.8397 42.4441 63.7523 42.0434 62.7348C41.6427 61.7173 41.0425 60.7901 40.2783 60.0078C39.5141 59.2255 38.6013 58.6039 37.5934 58.1795C36.5855 57.7551 35.5029 57.5365 34.4093 57.5365C33.3157 57.5365 32.2332 57.7551 31.2253 58.1795C30.2174 58.6039 29.3045 59.2255 28.5404 60.0078C27.7762 60.7901 27.176 61.7173 26.7753 62.7348C26.3746 63.7523 26.1814 64.8397 26.207 65.933V113.35C26.2041 115.529 27.0673 117.621 28.6064 119.164C29.366 119.927 30.2694 120.531 31.2644 120.942C32.2594 121.354 33.326 121.563 34.4026 121.559C36.579 121.556 38.6657 120.691 40.2047 119.152C41.7437 117.613 42.6092 115.526 42.6116 113.35V101.088C42.6128 100.167 42.9792 99.2842 43.6303 98.6331C44.2814 97.982 45.1641 97.6157 46.0849 97.6145H49.2302C51.0434 97.6186 52.7807 98.3426 54.0602 99.6274L61.7751 107.338C63.2689 108.819 65.2876 109.651 67.3916 109.651C69.4956 109.651 71.5143 108.819 73.0081 107.338L80.7273 99.6184C81.3572 98.9805 82.1082 98.4747 82.936 98.1306C83.7639 97.7865 84.652 97.6111 85.5485 97.6145H92.9263C93.2461 97.6169 93.552 97.7458 93.7768 97.9732C94.0017 98.2006 94.1273 98.5079 94.1261 98.8276V112.86C94.1189 112.974 94.1189 113.088 94.1261 113.201C94.1559 114.038 94.3072 114.866 94.5753 115.659L75.2547 152.544C71.4414 152.544 67.6283 152.566 63.815 152.611C68.5394 146.837 72.5955 140.547 75.9061 133.861C80.2555 126.492 84.5196 119.06 89.0083 111.772C89.2689 111.35 88.6129 110.973 88.3433 111.386C83.6389 118.575 78.7054 125.585 73.8618 132.666C68.9162 138.747 64.8004 145.459 61.6223 152.625C59.5285 152.625 57.4302 152.678 55.3319 152.705C57.1814 150.119 58.7892 147.368 60.1351 144.487C62.1481 140.587 63.9812 136.602 65.9762 132.706C65.9971 132.671 66.0031 132.629 65.9929 132.589C65.9828 132.55 65.9575 132.516 65.9223 132.495C65.8872 132.474 65.8451 132.468 65.8055 132.478C65.7659 132.488 65.732 132.514 65.7112 132.549C63.3028 136.215 60.7237 139.77 58.3109 143.431C56.1696 146.302 54.3959 149.43 53.0313 152.741C51.2026 152.768 49.3739 152.786 47.5452 152.818C47.5276 152.822 47.5117 152.832 47.5005 152.846C47.4893 152.861 47.4832 152.878 47.4832 152.896C47.4832 152.915 47.4893 152.932 47.5005 152.946C47.5117 152.961 47.5276 152.971 47.5452 152.975C49.3065 153.11 51.0724 153.218 52.8337 153.343C52.8022 153.456 52.7572 153.568 52.7258 153.685C52.6898 153.835 52.7033 153.993 52.7642 154.135C52.8251 154.277 52.9301 154.396 53.0638 154.474C53.1975 154.552 53.3525 154.584 53.5061 154.567C53.6598 154.549 53.8037 154.483 53.9165 154.377C54.2086 154.089 54.4827 153.788 54.7523 153.478C61.227 153.928 67.7061 154.332 74.1898 154.655L74.0775 154.876L77.1148 154.79L78.292 154.844C76.1469 159.138 74.331 163.589 72.8598 168.157C72.8195 168.31 72.8354 168.472 72.9048 168.614C72.9742 168.755 73.0923 168.867 73.2375 168.929C73.3827 168.991 73.5453 168.998 73.6954 168.949C73.8456 168.901 73.9732 168.8 74.055 168.665C76.5653 163.946 79.3763 159.392 82.4706 155.033C84.0927 155.1 85.7148 155.186 87.3368 155.253C86.528 156.601 85.7732 158.016 85.0004 159.333C82.963 162.983 81.1619 166.761 79.6085 170.642C79.5816 170.701 79.6489 170.764 79.6983 170.714C82.5259 167.899 85.1732 164.908 87.6244 161.759C89.1341 159.715 90.864 157.643 92.2569 155.424L97.7295 155.622C94.1678 161.314 90.9262 167.2 88.0198 173.253C87.9722 173.343 87.9473 173.443 87.9473 173.545C87.9473 173.647 87.9722 173.747 88.0198 173.837H32.0257C31.6948 173.836 31.3777 173.704 31.1437 173.47C30.9097 173.236 30.7777 172.919 30.7765 172.588L30.799 172.592ZM278.926 173.841H270.839C272.636 170.952 274.06 167.731 275.633 164.954C277.205 162.177 278.809 159.504 280.153 156.646V172.592C280.151 172.922 280.018 173.238 279.784 173.471C279.55 173.704 279.234 173.836 278.904 173.837L278.926 173.841ZM273.912 134.369C272.343 135.918 271.423 138.007 271.337 140.21C271.299 141.359 271.496 142.503 271.915 143.573C272.335 144.643 272.968 145.616 273.777 146.433C275.459 148.175 277.755 149.192 280.175 149.268V151.398C277.18 154.99 274.563 158.883 272.366 163.013C270.003 166.485 267.849 170.095 265.914 173.823H191.327C191.327 173.796 191.368 173.783 191.386 173.756C193.624 169.776 195.288 165.5 196.328 161.054C196.374 160.882 196.356 160.699 196.277 160.539C196.198 160.379 196.064 160.253 195.899 160.185C195.735 160.116 195.551 160.109 195.382 160.166C195.213 160.222 195.07 160.338 194.98 160.492C192.427 164.285 190.425 168.421 189.036 172.776C188.985 172.955 188.977 173.142 189.012 173.324C189.048 173.506 189.125 173.677 189.238 173.823H185.14C186.488 170.853 187.553 167.677 188.735 164.756C189.895 162.3 190.903 159.774 191.754 157.194C196.706 157.194 201.657 157.194 206.608 157.194C224.595 157.561 242.588 156.811 260.482 154.948C260.611 154.935 260.731 154.876 260.819 154.78C260.906 154.684 260.955 154.558 260.955 154.429C260.955 154.299 260.906 154.174 260.819 154.078C260.731 153.982 260.611 153.922 260.482 153.91C242.557 152.571 224.576 152.156 206.608 152.665C199.752 152.695 192.897 152.717 186.043 152.732C189.974 146.549 193.233 139.964 195.766 133.088C198.293 128.498 200.22 123.602 201.5 118.521C201.639 118.679 201.778 118.84 201.949 118.971C203.165 120.184 204.713 121.009 206.397 121.343C208.082 121.677 209.828 121.504 211.414 120.846C213.001 120.189 214.357 119.076 215.311 117.648C216.266 116.22 216.776 114.541 216.777 112.824V98.8276C216.775 98.5079 216.901 98.2006 217.126 97.9732C217.351 97.7458 217.656 97.6169 217.976 97.6145H225.354C227.167 97.6196 228.904 98.3434 230.184 99.6274L237.894 107.338C239.388 108.819 241.407 109.651 243.511 109.651C245.615 109.651 247.634 108.819 249.127 107.338L256.847 99.6184C257.477 98.98 258.229 98.4739 259.057 98.1298C259.886 97.7856 260.775 97.6105 261.672 97.6145H264.818C265.738 97.6157 266.621 97.982 267.272 98.6331C267.923 99.2842 268.29 100.167 268.291 101.088V113.35C268.291 115.525 269.155 117.611 270.693 119.15C272.232 120.688 274.318 121.552 276.493 121.552C278.669 121.552 280.755 120.688 282.293 119.15C283.831 117.611 284.696 115.525 284.696 113.35V65.933C284.696 63.7576 283.831 61.6713 282.293 60.1331C280.755 58.5949 278.669 57.7307 276.493 57.7307C274.318 57.7307 272.232 58.5949 270.693 60.1331C269.155 61.6713 268.291 63.7576 268.291 65.933V78.2084C268.289 79.128 267.922 80.0091 267.27 80.6585C266.619 81.308 265.737 81.6727 264.818 81.6727H261.672C260.775 81.6746 259.886 81.4989 259.057 81.1558C258.228 80.8126 257.476 80.3087 256.842 79.6732L249.127 71.9539C247.633 70.4744 245.614 69.6445 243.511 69.6445C241.408 69.6445 239.389 70.4744 237.894 71.9539L230.184 79.6687C228.899 80.944 227.164 81.6623 225.354 81.6682H223.107C228.414 72.9233 232.992 63.7562 236.794 54.2597C241.742 44.8009 246.169 35.0781 250.053 25.1349C254.182 24.8968 258.294 24.5463 262.378 24.0116C262.643 23.9801 262.782 23.5308 262.45 23.4814C248.684 21.9279 234.826 21.3364 220.978 21.7111C224.363 17.6204 226.764 12.8075 227.996 7.64291C228.038 7.44525 228.016 7.23934 227.933 7.05497C227.851 6.8706 227.711 6.71731 227.536 6.61727C227.36 6.51723 227.157 6.47561 226.957 6.49844C226.756 6.52127 226.568 6.60737 226.419 6.74428C224.638 8.6039 223.088 10.6723 221.804 12.9044C220.295 15.2499 218.605 17.5279 217.311 19.9947C217.172 20.2625 217.097 20.5588 217.092 20.8604C217.087 21.162 217.151 21.4609 217.28 21.7335C215.545 21.7335 213.813 21.7335 212.081 21.7335C212.656 21.0057 213.222 20.2777 213.771 19.5319C216.978 15.2052 219.624 10.4886 221.643 5.49517H278.908C279.24 5.49517 279.557 5.62677 279.792 5.86102C280.026 6.09527 280.157 6.41299 280.157 6.74428V30.0504C277.736 30.1246 275.44 31.142 273.759 32.8856C272.948 33.7055 272.314 34.6824 271.894 35.7564C271.475 36.8304 271.279 37.9788 271.319 39.1312C271.417 41.3838 272.38 43.5121 274.007 45.0735C275.633 46.6349 277.799 47.5095 280.054 47.5154H303.104C303.311 47.513 303.517 47.5521 303.709 47.6302C303.902 47.7083 304.076 47.824 304.223 47.9704C304.37 48.1169 304.486 48.2912 304.565 48.4831C304.643 48.675 304.683 48.8807 304.681 49.0881V70.2734C302.596 74.0387 301.06 78.1275 298.795 81.8299C295.962 85.438 293.583 89.3812 291.714 93.5706C291.449 94.4692 292.586 95.5027 293.412 94.8736C297.074 91.4515 299.982 87.3027 301.949 82.6926C302.971 80.7689 303.889 78.7921 304.699 76.7706V84.4404C300.552 91.6835 297.73 99.888 294.293 107.446C290.541 115.691 286.205 123.648 282.395 131.857H280.072C278.926 131.842 277.789 132.055 276.727 132.486C275.666 132.917 274.701 133.555 273.889 134.364L273.912 134.369ZM303.118 131.821H287.414C291.459 124.454 295.048 116.847 298.162 109.041C300.674 103.376 302.856 97.57 304.695 91.652V130.248C304.696 130.457 304.655 130.664 304.575 130.856C304.495 131.049 304.377 131.223 304.229 131.37C304.08 131.516 303.903 131.631 303.709 131.708C303.516 131.784 303.308 131.821 303.1 131.817L303.118 131.821Z" fill="#DEC7A6"/>
<path d="M150.412 159.144C148.635 160.434 147.105 162.032 145.892 163.862C144.701 165.471 142.679 167.695 142.927 169.802C142.934 170.053 143.006 170.297 143.136 170.512C143.265 170.727 143.447 170.906 143.664 171.031C143.882 171.155 144.128 171.222 144.378 171.225C144.629 171.228 144.876 171.167 145.097 171.047C146.943 170.247 147.865 167.668 148.858 166.019C150.076 164.22 151.082 162.285 151.855 160.254C151.901 160.067 151.892 159.87 151.828 159.688C151.765 159.505 151.65 159.345 151.497 159.227C151.343 159.11 151.159 159.039 150.967 159.024C150.774 159.01 150.581 159.051 150.412 159.144Z" fill="#DEC7A6"/>
<path d="M158.491 159.269C157.402 160.426 156.378 161.643 155.422 162.913C154.439 164.309 153.59 165.795 152.888 167.352C152.782 167.533 152.713 167.734 152.685 167.942C152.656 168.15 152.669 168.362 152.722 168.565C152.776 168.768 152.869 168.959 152.996 169.126C153.123 169.294 153.282 169.434 153.463 169.54C153.645 169.646 153.845 169.715 154.053 169.744C154.261 169.772 154.473 169.759 154.676 169.706C154.879 169.652 155.07 169.559 155.237 169.432C155.405 169.305 155.545 169.146 155.651 168.965C156.496 167.608 157.269 166.207 157.965 164.768C158.693 163.317 159.201 161.798 159.879 160.343C160.275 159.498 159.187 158.442 158.491 159.269Z" fill="#DEC7A6"/>
<path d="M164.579 160.762C163.395 161.78 162.432 163.029 161.749 164.433C161.093 165.664 160.158 167.102 160.949 168.477C161.07 168.675 161.252 168.829 161.467 168.916C161.682 169.003 161.919 169.02 162.144 168.962C163.582 168.661 164.071 167.053 164.647 165.88C165.361 164.585 165.922 163.212 166.318 161.787C166.374 161.566 166.357 161.334 166.269 161.124C166.182 160.914 166.028 160.738 165.833 160.623C165.637 160.508 165.409 160.459 165.183 160.484C164.957 160.509 164.745 160.607 164.579 160.762Z" fill="#DEC7A6"/>
<path d="M170.829 160.719C170.277 161.533 169.652 162.332 169.162 163.186C168.713 163.95 168.061 165.073 168.412 165.945C168.48 166.174 168.619 166.375 168.809 166.521C168.998 166.666 169.229 166.747 169.468 166.754C170.569 166.686 171.157 165.77 171.764 164.934C172.37 164.098 172.856 163.137 173.386 162.238C174.365 160.553 171.885 159.156 170.829 160.719Z" fill="#DEC7A6"/>
<path d="M144.441 13.8392C145.42 12.4298 146.096 10.8325 146.427 9.14836C146.458 8.87427 146.13 8.77542 145.932 8.86529C144.305 9.80645 142.977 11.1879 142.1 12.8507C140.897 14.3501 140.121 16.146 139.853 18.0494C139.808 18.7997 140.711 19.0019 141.201 18.6065C142.57 17.2339 143.668 15.6169 144.441 13.8392Z" fill="#DEC7A6"/>
<path d="M232.476 10.2407C230.64 11.1504 229.172 12.6617 228.315 14.5227C227.322 16.2077 225.803 18.2521 226.796 20.2066C226.94 20.4516 227.161 20.6423 227.424 20.7495C227.687 20.8567 227.978 20.8744 228.252 20.7997C230.162 20.1841 230.602 17.9825 231.456 16.3604C232.535 14.7806 233.272 12.9932 233.622 11.1124C233.623 10.9726 233.591 10.8345 233.53 10.709C233.468 10.5835 233.378 10.4741 233.267 10.3895C233.156 10.3049 233.026 10.2474 232.889 10.2215C232.752 10.1957 232.61 10.2023 232.476 10.2407Z" fill="#DEC7A6"/>
<path d="M238.555 10.8423C237.296 11.9576 236.233 13.2758 235.41 14.7423C234.677 15.9465 233.388 17.5865 233.949 19.0423C234.033 19.325 234.223 19.5643 234.48 19.71C234.736 19.8558 235.039 19.8967 235.324 19.8241C236.857 19.3748 237.346 17.5776 238.079 16.306C238.948 14.8911 239.725 13.4218 240.406 11.9072C240.856 10.7794 239.292 10.2402 238.555 10.8423Z" fill="#DEC7A6"/>
<path d="M243.713 11.444C242.57 12.2247 241.642 13.2819 241.017 14.5173C240.564 15.0439 240.222 15.6572 240.013 16.3199C239.803 16.9826 239.731 17.6809 239.8 18.3724C239.851 18.552 239.943 18.7174 240.068 18.8563C240.193 18.9952 240.348 19.104 240.521 19.1745C240.694 19.245 240.88 19.2754 241.067 19.2633C241.253 19.2512 241.434 19.1971 241.597 19.1048C242.725 18.4668 243.062 17.1323 243.641 16.0495C244.334 14.9952 244.905 13.8663 245.344 12.6841C245.4 12.4721 245.391 12.2484 245.319 12.0413C245.248 11.8342 245.117 11.6529 244.942 11.5203C244.768 11.3877 244.558 11.3097 244.339 11.2961C244.121 11.2825 243.903 11.3339 243.713 11.444Z" fill="#DEC7A6"/>
<path d="M250.345 12.3945C249.24 13.365 247.434 15.1488 247.838 16.7753C247.879 16.9163 247.952 17.0462 248.05 17.1552C248.149 17.2642 248.27 17.3495 248.407 17.4048C248.543 17.4601 248.69 17.484 248.836 17.4745C248.983 17.4651 249.125 17.4227 249.253 17.3504C249.842 16.8806 250.291 16.2592 250.552 15.5532C250.895 14.9293 251.31 14.3473 251.787 13.8188C251.942 13.6218 252.02 13.3746 252.004 13.1243C251.988 12.8741 251.881 12.6384 251.703 12.4622C251.524 12.286 251.287 12.1817 251.037 12.1692C250.786 12.1567 250.54 12.2369 250.345 12.3945Z" fill="#DEC7A6"/>
<path d="M252.547 13.559C252.268 14.0353 251.967 14.5026 251.711 14.9923C251.471 15.5134 251.319 16.0706 251.262 16.6413C251.216 16.8363 251.234 17.0408 251.313 17.2248C251.393 17.4087 251.529 17.5623 251.702 17.663C251.875 17.7636 252.076 17.806 252.275 17.7839C252.474 17.7617 252.661 17.6762 252.807 17.54C253.267 17.2086 253.672 16.8068 254.007 16.3493C254.299 15.8999 254.551 15.3787 254.816 14.9025C254.915 14.6098 254.91 14.2922 254.802 14.0027C254.695 13.7132 254.491 13.4694 254.225 13.3121C253.96 13.1548 253.648 13.0934 253.342 13.1384C253.037 13.1833 252.756 13.3318 252.547 13.559Z" fill="#DEC7A6"/>
<path d="M199.064 163.371C198.29 164.256 197.729 165.308 197.424 166.444C196.895 167.519 196.683 168.722 196.813 169.913C196.864 170.083 196.958 170.237 197.085 170.36C197.212 170.484 197.369 170.572 197.541 170.617C197.712 170.662 197.892 170.663 198.064 170.618C198.236 170.573 198.393 170.485 198.521 170.362C199.267 169.515 199.768 168.48 199.972 167.37C200.404 166.291 200.588 165.128 200.511 163.968C200.506 163.803 200.453 163.643 200.359 163.507C200.265 163.371 200.134 163.265 199.981 163.202C199.828 163.139 199.66 163.121 199.498 163.151C199.335 163.181 199.185 163.257 199.064 163.371Z" fill="#DEC7A6"/>
<path d="M207.566 162.655C207.02 162.969 206.564 163.418 206.241 163.958C205.917 164.498 205.738 165.112 205.719 165.742C205.716 166.07 205.834 166.388 206.049 166.636C206.264 166.883 206.563 167.044 206.888 167.088C207.213 167.131 207.543 167.055 207.816 166.872C208.089 166.69 208.286 166.414 208.37 166.097C208.459 165.695 208.667 165.33 208.967 165.05C209.278 164.858 209.502 164.554 209.595 164.201C209.688 163.848 209.642 163.474 209.466 163.154C209.278 162.838 208.973 162.609 208.618 162.516C208.262 162.422 207.884 162.472 207.566 162.655Z" fill="#DEC7A6"/>
<path d="M112.989 51.8838C116.196 49.0292 118.581 45.3678 119.895 41.2799C121.908 37.6032 123.314 33.6247 124.055 29.4987C124.054 29.4427 124.036 29.3883 124.004 29.3421C123.973 29.2958 123.928 29.2596 123.877 29.2378C123.825 29.216 123.768 29.2096 123.713 29.2192C123.658 29.2288 123.607 29.2541 123.565 29.292C120.948 32.763 118.662 36.4728 116.74 40.3722C114.29 43.532 112.525 47.168 111.56 51.048C111.558 51.2162 111.6 51.3818 111.683 51.5281C111.766 51.6744 111.886 51.7962 112.031 51.8811C112.176 51.966 112.341 52.011 112.509 52.0114C112.678 52.0119 112.843 51.9679 112.989 51.8838Z" fill="#DEC7A6"/>
<path d="M108.176 45.5403C109.755 44.284 110.884 42.5498 111.393 40.5977C112.269 38.817 112.765 36.8738 112.849 34.8914C112.849 34.8571 112.839 34.8236 112.82 34.795C112.801 34.7665 112.774 34.7441 112.742 34.7307C112.711 34.7173 112.676 34.7135 112.642 34.7197C112.609 34.7259 112.577 34.7418 112.553 34.7656C110.938 36.2213 109.651 38.0022 108.774 39.9912C107.724 41.5041 107.195 43.3181 107.269 45.1583C107.293 45.2505 107.338 45.3358 107.4 45.4078C107.462 45.4798 107.54 45.5365 107.628 45.5734C107.716 45.6103 107.811 45.6266 107.906 45.6208C108.001 45.6151 108.094 45.5875 108.176 45.5403Z" fill="#DEC7A6"/>
<path d="M101.827 38.7068C102.878 37.8611 103.751 36.8168 104.397 35.6334C104.887 34.9415 103.755 34.2855 103.265 34.9729C102.389 35.9311 101.708 37.0515 101.261 38.2709C101.243 38.3444 101.247 38.4215 101.272 38.4928C101.297 38.5642 101.343 38.6267 101.403 38.6728C101.463 38.719 101.535 38.7467 101.61 38.7527C101.685 38.7588 101.761 38.7428 101.827 38.7068Z" fill="#DEC7A6"/>
<path d="M203.98 126.629C201.396 129.802 199.253 133.31 197.609 137.057C195.493 140.673 193.877 144.559 192.805 148.609C192.722 148.97 192.768 149.348 192.936 149.677C193.104 150.007 193.383 150.266 193.724 150.41C194.065 150.553 194.446 150.572 194.799 150.462C195.152 150.352 195.455 150.121 195.654 149.809C197.791 146.081 199.574 142.161 200.978 138.1C202.686 134.63 204.068 131.009 205.108 127.285C205.265 126.669 204.452 126.098 203.98 126.629Z" fill="#DEC7A6"/>
<path d="M208.001 133.257C206.053 135.214 204.657 137.653 203.958 140.325C202.991 142.571 200.713 145.411 201.509 147.887C201.583 148.147 201.757 148.367 201.992 148.501C202.227 148.634 202.505 148.67 202.767 148.601C205.31 147.702 205.97 144.427 206.905 142.113C208.428 139.514 209.031 136.478 208.617 133.495C208.601 133.432 208.57 133.374 208.528 133.326C208.485 133.277 208.431 133.24 208.371 133.217C208.31 133.193 208.245 133.185 208.181 133.192C208.117 133.199 208.055 133.221 208.001 133.257Z" fill="#DEC7A6"/>
<path d="M213.959 138.024C212.582 139.295 211.523 140.873 210.868 142.629C210.226 144.198 209.282 146.134 210.113 147.752C210.179 147.863 210.265 147.961 210.369 148.039C210.472 148.117 210.589 148.174 210.714 148.206C210.84 148.239 210.97 148.247 211.098 148.229C211.226 148.211 211.35 148.168 211.461 148.102C212.755 147.127 212.908 145.465 213.366 143.973C213.993 142.203 214.494 140.39 214.867 138.55C214.897 138.434 214.889 138.312 214.843 138.202C214.798 138.092 214.717 138 214.614 137.94C214.511 137.881 214.391 137.856 214.272 137.872C214.154 137.887 214.044 137.94 213.959 138.024Z" fill="#DEC7A6"/>
<path d="M219.89 141.265C219.165 141.831 218.587 142.565 218.205 143.403C217.855 144.185 217.54 145.439 218.255 146.099C218.393 146.23 218.57 146.314 218.759 146.338C218.947 146.362 219.139 146.326 219.306 146.234C219.962 145.951 220.232 144.971 220.474 144.351C220.734 143.688 221.055 143.051 221.431 142.446C222.069 141.449 220.704 140.604 219.89 141.265Z" fill="#DEC7A6"/>
<path d="M211.591 128.095C212.057 127.186 212.377 126.21 212.539 125.201C212.535 125.014 212.483 124.831 212.387 124.669C212.291 124.508 212.155 124.374 211.992 124.281C211.83 124.188 211.645 124.139 211.458 124.138C211.27 124.137 211.086 124.184 210.922 124.276C209.942 124.976 209.252 126.01 208.981 127.183C208.707 127.69 208.573 128.26 208.59 128.836C208.607 129.412 208.776 129.973 209.08 130.463C209.139 130.557 209.217 130.637 209.311 130.697C209.404 130.756 209.51 130.795 209.62 130.809C209.73 130.823 209.842 130.813 209.947 130.779C210.053 130.744 210.149 130.687 210.23 130.611C210.936 129.936 211.413 129.056 211.591 128.095Z" fill="#DEC7A6"/>
<path d="M228.36 108.836C226.312 111.253 224.666 113.984 223.485 116.924C221.795 119.271 220.592 121.932 219.949 124.751C219.949 124.843 219.973 124.932 220.019 125.011C220.065 125.09 220.131 125.156 220.21 125.201C220.289 125.247 220.379 125.271 220.47 125.27C220.562 125.27 220.651 125.246 220.73 125.201C223.098 123.19 224.864 120.566 225.835 117.616C227.451 114.99 228.397 112.008 228.589 108.931C228.589 108.904 228.581 108.879 228.566 108.857C228.551 108.835 228.53 108.818 228.506 108.808C228.481 108.798 228.454 108.795 228.429 108.8C228.403 108.805 228.379 108.818 228.36 108.836Z" fill="#DEC7A6"/>
<path d="M218.331 133.104C218.659 132.161 218.924 131.208 219.279 130.269C219.487 129.251 219.788 128.254 220.178 127.29C220.243 127.165 220.262 127.02 220.232 126.882C220.201 126.744 220.123 126.622 220.011 126.535C219.899 126.449 219.76 126.405 219.619 126.411C219.478 126.416 219.343 126.472 219.239 126.567C218.848 126.994 218.3 127.299 217.891 127.685C217.416 128.109 217.033 128.624 216.763 129.2C216.209 130.309 215.885 131.52 215.81 132.758C215.703 134.29 217.873 134.43 218.331 133.104Z" fill="#DEC7A6"/>
<path d="M227.488 127.559C226.661 128.625 225.903 129.743 225.219 130.907C224.694 131.927 224.127 132.87 224.631 133.993C224.722 134.151 224.864 134.275 225.033 134.344C225.202 134.413 225.389 134.424 225.565 134.375C226.729 134.043 227.061 132.884 227.484 131.864C227.92 130.601 228.274 129.312 228.544 128.004C228.578 127.87 228.562 127.728 228.501 127.604C228.439 127.48 228.335 127.382 228.207 127.329C228.079 127.275 227.937 127.269 227.805 127.311C227.673 127.353 227.561 127.441 227.488 127.559Z" fill="#DEC7A6"/>
<path d="M222.604 136.805C222.204 137.416 221.759 138.059 222.155 138.778C222.243 138.92 222.383 139.023 222.545 139.066C222.707 139.108 222.88 139.087 223.027 139.007C223.763 138.688 223.754 137.825 223.799 137.133C223.844 136.441 222.937 136.279 222.604 136.805Z" fill="#DEC7A6"/>
<path d="M48.7449 77.6511C50.0704 78.4104 51.0454 76.0515 51.4408 75.2742C51.9261 74.3486 52.4337 73.4365 52.8561 72.4794C53.2176 71.5898 53.3935 70.6357 53.3729 69.6757C53.3716 69.6184 53.3555 69.5624 53.3262 69.5131C53.2969 69.4639 53.2554 69.423 53.2057 69.3946C53.156 69.3661 53.0997 69.3509 53.0424 69.3506C52.9851 69.3503 52.9286 69.3647 52.8785 69.3926C52.1502 69.8359 51.5115 70.412 50.9959 71.0911C50.4162 71.9537 49.9355 72.8883 49.4368 73.787C49.001 74.5823 47.3655 76.8603 48.7449 77.6511Z" fill="#DEC7A6"/>
<path d="M50.6994 60.7384C52.0474 59.1793 52.6989 57.2248 54.1097 55.7061C54.2161 55.5929 54.2742 55.4428 54.2718 55.2876C54.2694 55.1323 54.2067 54.9841 54.0969 54.8743C53.9871 54.7645 53.8388 54.7017 53.6836 54.6993C53.5283 54.6969 53.3781 54.755 53.2649 54.8614C52.3727 55.5246 51.6221 56.3596 51.0573 57.3172C50.4925 58.2748 50.1248 59.3357 49.976 60.4374C49.9853 60.5166 50.0156 60.5919 50.0637 60.6556C50.1118 60.7193 50.1759 60.769 50.2495 60.7996C50.3232 60.8303 50.4037 60.8408 50.4828 60.83C50.5618 60.8193 50.6366 60.7877 50.6994 60.7384Z" fill="#DEC7A6"/>
<path d="M289.777 103.889C290.592 102.919 291.204 101.794 291.575 100.582C292.024 99.342 292.087 98.0165 292.554 96.8033C292.824 96.0979 291.772 95.7564 291.39 96.3181C290.904 96.8768 290.381 97.4036 289.827 97.8952C289.481 98.2906 289.198 98.7579 288.888 99.1847C288.123 100.14 287.559 101.241 287.23 102.42C287.144 102.743 287.167 103.086 287.296 103.395C287.424 103.704 287.651 103.963 287.941 104.13C288.231 104.297 288.568 104.364 288.9 104.321C289.232 104.277 289.54 104.125 289.777 103.889Z" fill="#DEC7A6"/>
<path d="M289.539 85.4195C292.129 83.4991 294.126 80.8875 295.299 77.8844C297.097 74.5684 298.575 71.1446 300.242 67.7568C300.274 67.7039 300.285 67.6413 300.273 67.5808C300.262 67.5203 300.229 67.4661 300.18 67.4285C300.131 67.3908 300.07 67.3724 300.009 67.3766C299.947 67.3808 299.89 67.4073 299.846 67.4512C297.549 69.773 295.606 72.421 294.082 75.3098C292.013 78.1744 290.093 81.1439 288.331 84.2063C288.243 84.3755 288.211 84.5683 288.24 84.7568C288.269 84.9452 288.357 85.1196 288.491 85.2547C288.626 85.3897 288.8 85.4785 288.988 85.5081C289.177 85.5378 289.37 85.5067 289.539 85.4195Z" fill="#DEC7A6"/>
<path d="M292.684 69.6128C293.627 68.805 294.379 67.7984 294.886 66.6653C295.526 65.4282 296.099 64.1578 296.602 62.8596C296.823 62.3474 296.203 61.7093 295.753 62.2081C294.855 63.2011 293.956 64.1312 293.143 65.196C292.272 66.1441 291.623 67.2736 291.242 68.503C291.112 69.2624 291.907 70.143 292.684 69.6128Z" fill="#DEC7A6"/>
<path d="M143.156 79.6793C143.102 79.7422 143.156 79.877 143.25 79.8365C150.565 76.9564 160.773 75.1816 167.787 79.9848C167.949 80.0971 168.142 79.8815 168.048 79.7197C162.62 70.3559 149.496 71.8926 143.156 79.6793Z" fill="#DEC7A6"/>
<path d="M201.405 64.7784L202.87 61.9521C202.16 62.7612 201.657 63.7313 201.405 64.7784Z" fill="#F8F5EF"/>
<path d="M200.066 29.3228C196.328 36.3636 192.428 43.3505 188.595 50.3329C184.609 56.4116 181.23 62.868 178.508 69.6087C178.478 69.7309 178.488 69.8595 178.537 69.9754C178.586 70.0913 178.671 70.1883 178.78 70.2519C178.889 70.3156 179.015 70.3424 179.14 70.3285C179.265 70.3146 179.382 70.2607 179.474 70.1748C184.522 64.3687 188.642 57.8166 191.687 50.7508C195.18 43.9175 198.305 36.9027 201.05 29.7361C201.275 29.1655 200.349 28.7881 200.066 29.3228Z" fill="#F8F5EF"/>
<path d="M177.219 73.0447C176.697 73.8805 175.871 74.6039 175.974 75.7047C176.014 76.0192 176.351 76.3248 176.67 76.1046C177.645 75.4351 177.623 74.3478 177.924 73.3413C177.948 73.2513 177.938 73.1557 177.897 73.0721C177.856 72.9886 177.786 72.9227 177.7 72.8866C177.614 72.8506 177.518 72.8467 177.43 72.8757C177.341 72.9048 177.266 72.9648 177.219 73.0447Z" fill="#F8F5EF"/>
<path d="M158.603 112.503C156.882 115.536 155.009 118.443 153.4 121.534C151.837 123.837 150.721 126.413 150.111 129.128C150.066 129.577 150.655 129.721 150.933 129.469C152.837 127.246 154.307 124.686 155.269 121.921C156.721 118.937 157.875 115.891 159.232 112.872C159.434 112.454 158.837 112.09 158.603 112.503Z" fill="#F8F5EF"/>
<path d="M148.997 131.86C147.312 133.796 144.558 136.254 145.766 139.121C145.946 139.57 146.508 139.48 146.795 139.256C148.804 137.66 148.548 134.439 149.491 132.255C149.648 131.932 149.262 131.541 148.997 131.86Z" fill="#F8F5EF"/>
<path d="M144.027 141.561C141.556 144.591 139.612 148.014 138.276 151.688C138.002 152.686 139.426 153.692 140.145 152.771C142.342 149.459 143.965 145.799 144.944 141.947C145.133 141.376 144.333 141.12 144.027 141.561Z" fill="#F8F5EF"/>
<path d="M234.866 26.2016C232.761 28.762 230.819 31.4528 229.052 34.2579C227.158 36.6183 225.84 39.3873 225.201 42.3456C225.204 42.5021 225.247 42.6553 225.327 42.7899C225.407 42.9245 225.52 43.0359 225.657 43.1131C225.793 43.1903 225.947 43.2305 226.103 43.2299C226.26 43.2293 226.414 43.1877 226.549 43.1095C228.843 41.1314 230.649 38.6513 231.829 35.8619C233.451 32.9754 234.891 29.9906 236.142 26.925C236.403 26.2465 235.333 25.6399 234.866 26.2016Z" fill="#F8F5EF"/>
<path d="M224.37 44.8405C223.57 45.5139 222.874 46.3012 222.303 47.177C221.598 48.3587 221.697 48.817 220.452 49.9448C220.142 50.2279 219.809 50.4615 219.526 50.7716C218.056 52.268 217.206 54.2644 217.145 56.3611C217.149 56.4774 217.186 56.59 217.253 56.6857C217.319 56.7813 217.412 56.8558 217.519 56.9003C217.627 56.9448 217.745 56.9575 217.859 56.9368C217.974 56.916 218.08 56.8628 218.165 56.7834C219.459 55.4358 220.427 53.8096 220.996 52.0297C221.434 50.5723 222.223 49.2443 223.292 48.161C224.043 47.4409 224.732 46.6577 225.35 45.8201C225.479 45.6902 225.552 45.514 225.552 45.3303C225.552 45.1466 225.479 44.9704 225.35 44.8405C225.22 44.7107 225.043 44.6377 224.86 44.6377C224.676 44.6377 224.5 44.7107 224.37 44.8405Z" fill="#F8F5EF"/>
<path d="M226.648 26.9879C223.845 29.196 221.793 32.2172 220.775 35.6373C220.739 35.7877 220.753 35.9456 220.814 36.0877C220.875 36.2298 220.98 36.3485 221.113 36.4262C221.247 36.5039 221.402 36.5364 221.556 36.5189C221.709 36.5015 221.853 36.435 221.966 36.3293C223.199 35.0802 224.257 33.67 225.111 32.1371C226.111 30.7101 226.8 29.089 227.133 27.3788C227.201 27.1137 226.922 26.7947 226.648 26.9879Z" fill="#F8F5EF"/>
<path d="M178.337 137.803C176.828 140.009 175.408 142.273 173.97 144.542C172.538 146.189 171.523 148.155 171.009 150.276C171.01 150.387 171.04 150.497 171.096 150.593C171.152 150.69 171.233 150.77 171.33 150.825C171.427 150.881 171.536 150.91 171.648 150.909C171.76 150.909 171.869 150.88 171.966 150.824C173.564 149.336 174.782 147.487 175.52 145.432C176.787 143.078 178.072 140.737 179.267 138.346C179.332 138.223 179.347 138.08 179.309 137.947C179.271 137.813 179.183 137.699 179.063 137.629C178.943 137.559 178.8 137.538 178.665 137.57C178.53 137.603 178.413 137.686 178.337 137.803Z" fill="#F8F5EF"/>
<path d="M170.362 139.621C167.095 141.688 164.706 144.888 163.654 148.608C163.582 148.858 163.579 149.124 163.646 149.376C163.712 149.628 163.845 149.858 164.031 150.041C164.157 150.192 164.317 150.312 164.498 150.39C164.68 150.468 164.877 150.503 165.073 150.49C165.332 150.493 165.587 150.426 165.811 150.298C166.035 150.169 166.221 149.983 166.349 149.758C167.158 148.073 167.98 146.419 168.87 144.77C169.774 143.337 170.43 141.762 170.811 140.111C170.847 139.837 170.667 139.5 170.362 139.621Z" fill="#F8F5EF"/>
<path d="M140.563 134.085C138.376 136.576 136.56 139.369 135.171 142.379C133.444 144.92 132.257 147.789 131.685 150.808C131.691 151.007 131.754 151.201 131.868 151.365C131.981 151.528 132.139 151.656 132.324 151.732C132.508 151.808 132.71 151.829 132.906 151.793C133.102 151.756 133.283 151.664 133.428 151.527C135.373 149.038 136.874 146.232 137.867 143.233C139.338 140.467 140.505 137.55 141.349 134.534C141.409 134.43 141.425 134.306 141.393 134.19C141.362 134.074 141.285 133.976 141.181 133.916C141.077 133.857 140.953 133.841 140.837 133.872C140.721 133.904 140.623 133.98 140.563 134.085Z" fill="#F8F5EF"/>
</g>
</svg>
