<svg width="342" height="550" viewBox="0 0 342 550" fill="none" xmlns="http://www.w3.org/2000/svg">
<g opacity="0.8">
<path d="M200.591 46.8869C200.154 47.2955 199.806 47.7903 199.57 48.3399C199.334 48.8896 199.214 49.4822 199.219 50.0804C199.18 51.491 199.671 52.865 200.595 53.9317C202.288 55.6296 203.779 57.5172 205.039 59.557L205.13 59.7171C205.691 60.7385 205.988 61.8838 205.995 63.0491V63.7544C205.934 75.9057 209.835 87.7459 217.108 97.4807C225.153 107.736 229.439 120.441 229.25 133.474C228.265 168.456 219.019 202.708 202.265 233.433C199.25 239.151 194.613 243.851 188.936 246.944C183.26 250.037 176.796 251.385 170.356 250.819C169.461 262.425 166.029 313.131 167.513 390.956C168.755 456.297 174.805 531.183 175.887 544.182L178.574 544.502C180.266 529.738 189.331 450.048 196.216 378.039C198.328 355.971 200.037 334.607 201.551 315.749C204.148 283.568 205.995 260.313 208.207 253.074C220.167 215.93 229.991 178.132 237.632 139.866C240.318 125.416 248.621 112.62 260.721 104.279C267.18 99.4462 272.584 93.3459 276.602 86.3517C280.62 79.3574 283.167 71.6164 284.088 63.6029C288.251 34.8963 274.287 9.02394 252.958 5.93431C235.078 3.33799 217.255 17.4273 209.622 40.2014C209.586 40.3139 209.54 40.4226 209.483 40.526C209.448 40.5996 209.409 40.6861 209.366 40.7986C209.005 42.1771 208.217 43.4059 207.115 44.3091C206.013 45.2123 204.653 45.7436 203.23 45.8268C202.252 45.8529 201.315 46.229 200.591 46.8869ZM251.885 13.2863C253.128 13.466 254.357 13.7305 255.563 14.0781C259.621 15.373 263.38 17.4643 266.62 20.2299C269.859 22.9954 272.515 26.3795 274.43 30.184C279.495 40.3159 281.339 51.7548 279.715 62.9651C278.091 74.1755 273.075 84.6205 265.343 92.8981C262.111 96.6119 257.998 99.4554 253.382 101.168C248.766 102.88 243.794 103.407 238.922 102.7C234.049 101.993 229.432 100.075 225.493 97.1211C221.554 94.1672 218.42 90.2722 216.376 85.7928C211.133 75.7184 209.282 64.221 211.097 53.01C214.671 28.3579 232.967 10.5385 251.885 13.2863Z" fill="white"/>
<path d="M194.372 49.9818C194.305 52.7029 195.304 55.3426 197.155 57.3381C198.539 58.7275 199.766 60.2641 200.816 61.9206L200.885 62.0504C201.056 62.365 201.145 62.7177 201.145 63.0759V63.8289C201.104 77.0466 205.378 89.9165 213.317 100.485C220.668 109.871 224.581 121.493 224.403 133.415C223.452 167.554 214.435 200.984 198.09 230.971C186.943 249.851 169.461 245.883 168.729 245.71C168.39 245.625 168.036 245.614 167.693 245.679C167.349 245.744 167.023 245.883 166.739 246.086C166.455 246.29 166.218 246.552 166.044 246.855C165.87 247.158 165.763 247.495 165.731 247.843C165.683 248.375 160.971 302.076 162.667 391.074C164.026 462.689 171.153 545.758 171.222 546.589C171.271 547.144 171.51 547.665 171.897 548.065C172.285 548.465 172.798 548.72 173.351 548.787L180.417 549.627C180.734 549.665 181.055 549.64 181.363 549.553C181.67 549.467 181.957 549.32 182.208 549.122C182.458 548.925 182.667 548.679 182.822 548.4C182.978 548.122 183.077 547.815 183.113 547.498C183.213 546.632 193.451 457.925 201.045 378.52C203.157 356.43 204.87 335.036 206.385 316.161C208.843 285.481 210.786 261.249 212.845 254.511C224.851 217.199 234.713 179.231 242.383 140.793C244.827 127.619 252.391 115.95 263.417 108.339C270.435 103.125 276.312 96.5315 280.689 88.9637C285.066 81.396 287.85 73.0135 288.87 64.3308C293.124 35.014 279.584 8.33248 258.203 2.15323C256.708 1.71794 255.184 1.38828 253.642 1.16664C233.443 -1.76287 213.486 13.5944 205.065 38.5364C204.991 38.6965 204.909 38.8782 204.823 39.1032C204.174 40.8341 203.888 40.8601 202.521 41.0592C200.567 41.2247 198.725 42.0362 197.285 43.3655C196.379 44.2153 195.654 45.2395 195.153 46.3764C194.653 47.5133 194.387 48.7397 194.372 49.9818ZM209.362 40.7995C209.405 40.687 209.444 40.6005 209.479 40.5269C209.535 40.4236 209.582 40.3148 209.617 40.2023C217.25 17.4283 235.074 3.33892 252.954 5.93524C274.283 9.02487 288.247 34.8972 284.084 63.6039C283.163 71.6173 280.615 79.3583 276.597 86.3526C272.579 93.3469 267.176 99.4471 260.717 104.28C248.616 112.621 240.314 125.417 237.627 139.866C229.987 178.133 220.162 215.931 208.202 253.075C205.991 260.314 204.126 283.569 201.547 315.75C200.032 334.608 198.323 355.993 196.212 378.04C189.327 450.049 180.261 529.739 178.57 544.503L175.882 544.183C174.801 531.201 168.751 456.28 167.509 390.957C166.038 313.132 169.456 262.439 170.352 250.82C176.792 251.386 183.255 250.038 188.932 246.945C194.608 243.852 199.245 239.152 202.261 233.434C219.014 202.709 228.261 168.457 229.245 133.475C229.434 120.442 225.149 107.737 217.103 97.4816C209.831 87.7468 205.929 75.9066 205.991 63.7553V63.05C205.984 61.8847 205.687 60.7394 205.126 59.718L205.035 59.5579C203.775 57.5181 202.283 55.6305 200.591 53.9326C199.667 52.8659 199.176 51.4919 199.215 50.0814C199.21 49.4832 199.33 48.8905 199.566 48.3409C199.802 47.7912 200.149 47.2964 200.586 46.8879C201.31 46.2309 202.245 45.8548 203.222 45.8277C204.645 45.7454 206.006 45.2146 207.109 44.3113C208.212 43.408 209.001 42.1786 209.362 40.7995Z" fill="#FBF1DD"/>
<path d="M216.368 85.7934C218.411 90.2728 221.546 94.1678 225.485 97.1217C229.424 100.076 234.041 101.994 238.913 102.701C243.785 103.408 248.757 102.881 253.373 101.169C257.989 99.456 262.102 96.6125 265.334 92.8987C273.067 84.6212 278.082 74.1761 279.706 62.9658C281.331 51.7554 279.486 40.3165 274.421 30.1846C272.506 26.3801 269.851 22.996 266.611 20.2305C263.371 17.465 259.613 15.3736 255.555 14.0788C254.348 13.7312 253.119 13.4666 251.877 13.2869C232.954 10.5391 214.663 28.3585 211.075 53.0106C209.264 64.223 211.12 75.7205 216.368 85.7934ZM270.185 32.517C274.741 41.7267 276.39 52.1036 274.914 62.2721C273.438 72.4405 268.907 81.9201 261.92 89.4543C259.128 92.5175 255.652 94.8785 251.775 96.3455C247.898 97.8124 243.73 98.3439 239.609 97.8966C238.596 97.7462 237.595 97.5294 236.61 97.2476C233.16 96.1277 229.967 94.332 227.218 91.9649C224.469 89.5979 222.219 86.707 220.6 83.4611C215.863 74.3102 214.204 63.8758 215.87 53.7073C219.063 31.7035 234.91 15.723 251.176 18.0814C255.256 18.8225 259.105 20.5161 262.408 23.0244C265.711 25.5327 268.375 28.785 270.185 32.517Z" fill="#FBF1DD"/>
<path d="M214.07 90.567C216.295 93.7652 218.717 96.8219 221.322 99.7191C224.293 103.467 226.568 107.717 228.038 112.268C233.988 129.231 230.081 148.677 229.527 166.146C229.524 166.162 229.527 166.179 229.537 166.192C229.546 166.205 229.56 166.215 229.576 166.217C229.592 166.22 229.609 166.217 229.622 166.207C229.636 166.198 229.645 166.184 229.648 166.168C231.91 156.919 233.501 147.519 234.408 138.041C234.46 137.578 234.507 137.111 234.555 136.647C234.617 136.636 234.673 136.606 234.717 136.561C234.76 136.516 234.788 136.458 234.797 136.396C235.783 130.657 237.718 125.122 240.522 120.018C243.118 115.146 247.082 111.472 249.999 106.889C250.065 106.788 250.095 106.667 250.084 106.547C250.072 106.426 250.019 106.313 249.934 106.227C249.969 106.166 249.988 106.098 249.988 106.027C249.989 105.957 249.972 105.888 249.938 105.827C249.904 105.765 249.854 105.714 249.794 105.677C249.735 105.64 249.666 105.62 249.596 105.617C249.359 105.591 249.12 105.591 248.882 105.617C247.549 105.491 246.209 105.45 244.871 105.496C243.572 105.429 242.27 105.461 240.976 105.591C239.356 105.626 237.736 105.481 236.147 105.158C233.418 104.355 230.788 103.243 228.311 101.844C226.182 99.3427 223.728 97.0103 221.586 94.6044C215.033 87.6402 210.77 78.8363 209.371 69.3768C209.306 68.8186 208.458 68.7667 208.466 69.3768C208.295 76.8278 210.238 84.1748 214.07 90.567ZM238.129 119.2L238.155 119.14L238.129 119.2Z" fill="#FBF1DD"/>
<path d="M201.871 51.6574C202.157 53.2195 203.265 53.9205 204.321 54.9763C206.206 56.9812 207.379 59.5513 207.657 62.2893C207.692 62.484 207.956 62.4494 208.016 62.2893C208.951 59.5368 208.893 56.5436 207.852 53.8296C207.346 52.821 207.061 51.716 207.017 50.5885C207.686 48.3861 208.99 46.4296 210.764 44.9631C210.872 44.8506 210.742 44.643 210.595 44.7338C209.258 45.7035 207.778 46.4583 206.207 46.971C205.325 47.0682 204.464 47.3033 203.654 47.6677C203.003 48.0892 202.488 48.6903 202.172 49.3984C201.856 50.1065 201.751 50.8912 201.871 51.6574Z" fill="#FBF1DD"/>
<path d="M225.057 19.9079C230.29 14.7324 236.991 11.2963 244.248 10.0678C252.712 9.131 261.227 11.3193 268.19 16.2211C268.229 16.2408 268.274 16.2465 268.316 16.2373C268.359 16.2281 268.397 16.2045 268.424 16.1706C268.452 16.1367 268.467 16.0944 268.466 16.0508C268.466 16.0073 268.451 15.965 268.424 15.9312C265.423 12.6427 261.665 10.1358 257.477 8.62771C253.288 7.11963 248.795 6.65593 244.386 7.27678C240.368 7.73144 236.503 9.08145 233.075 11.2275C229.812 13.5089 227.058 16.4426 224.987 19.843C224.953 19.8733 225.018 19.9079 225.057 19.9079Z" fill="#FBF1DD"/>
<path d="M173.714 411.006C173.536 401.304 173.435 391.601 173.412 381.897C173.39 372.952 174.922 362.424 172.892 353.722C172.844 353.548 172.74 353.394 172.597 353.283C172.453 353.172 172.278 353.111 172.097 353.108C171.916 353.105 171.739 353.161 171.592 353.267C171.445 353.373 171.337 353.523 171.283 353.696C169.089 362.372 170.547 372.926 170.625 381.858C170.711 391.954 170.883 402.051 171.14 412.148C171.399 422.239 171.711 432.334 172.239 442.417C172.104 451.789 172.91 461.151 174.645 470.362C174.645 470.375 174.65 470.387 174.659 470.396C174.668 470.405 174.68 470.41 174.692 470.41C174.705 470.41 174.717 470.405 174.726 470.396C174.735 470.387 174.74 470.375 174.74 470.362C175.491 460.294 175.394 450.18 174.45 440.128C174.208 430.409 173.896 420.712 173.714 411.006Z" fill="#FBF1DD"/>
<path d="M173.424 335.362C173.195 334.765 172.269 334.423 171.906 335.128C171.2 336.984 170.935 338.977 171.131 340.953C171.101 343.419 171.343 345.873 171.564 348.331C171.598 348.733 172.243 348.915 172.334 348.443C172.767 346.28 173.173 344.142 173.437 341.952C173.942 339.784 173.937 337.528 173.424 335.362Z" fill="#FBF1DD"/>
<path d="M178.851 388.065C178.191 392.849 178.226 397.704 178.955 402.479C179.202 407.283 179.789 412.063 180.711 416.784C180.728 416.85 180.768 416.908 180.825 416.947C180.881 416.986 180.949 417.003 181.017 416.995C181.085 416.987 181.147 416.955 181.193 416.904C181.239 416.853 181.264 416.788 181.265 416.72C181.425 411.631 181.101 406.568 180.911 401.483C181.128 396.994 180.838 392.494 180.045 388.069C180.01 387.938 179.933 387.822 179.825 387.739C179.717 387.656 179.585 387.611 179.45 387.61C179.314 387.61 179.181 387.654 179.073 387.736C178.965 387.818 178.887 387.934 178.851 388.065Z" fill="#FBF1DD"/>
<path d="M179.444 382.095C180.201 380.542 180.609 378.843 180.64 377.116C180.671 375.389 180.323 373.677 179.621 372.099C179.548 371.976 179.436 371.88 179.304 371.825C179.172 371.77 179.025 371.76 178.886 371.795C178.748 371.83 178.624 371.908 178.533 372.019C178.443 372.13 178.39 372.267 178.383 372.41C178.709 375.599 178.868 378.803 178.859 382.008C178.816 382.363 179.34 382.402 179.444 382.095Z" fill="#FBF1DD"/>
<path d="M175.848 280.839C176.417 276.169 177.857 271.647 180.093 267.507C182.203 263.98 185.087 260.978 188.526 258.727C189.677 257.935 190.811 257.174 191.88 256.351C197.538 252.961 202.31 248.276 205.805 242.682C208.361 238.579 210.534 234.249 212.296 229.748C214.459 224.404 214.667 218.899 216.285 213.49C216.298 213.43 216.287 213.367 216.255 213.314C216.223 213.261 216.173 213.222 216.113 213.204C216.054 213.187 215.99 213.192 215.935 213.22C215.879 213.247 215.836 213.294 215.814 213.352C213.479 218.892 210.821 224.29 207.852 229.518C205.509 234.388 202.446 238.877 198.765 242.833C195.689 246.155 192.095 248.956 188.124 251.128C184.372 253.119 179.604 253.231 176.142 255.616C174.692 256.861 173.55 258.425 172.803 260.184C172.056 261.943 171.726 263.851 171.836 265.759C171.347 271.596 171.14 277.468 170.906 283.318C170.473 294.236 169.006 306.145 171.109 316.937C171.124 316.989 171.155 317.035 171.198 317.068C171.241 317.101 171.293 317.118 171.347 317.118C171.402 317.118 171.454 317.101 171.497 317.068C171.54 317.035 171.571 316.989 171.585 316.937C173.57 306.405 174.828 295.749 175.35 285.045C175.503 283.643 175.669 282.241 175.848 280.839Z" fill="#FBF1DD"/>
<path d="M181.01 278.8C181.008 278.631 180.952 278.467 180.851 278.332C180.749 278.197 180.607 278.098 180.445 278.05C180.283 278.001 180.109 278.006 179.95 278.063C179.791 278.12 179.655 278.227 179.56 278.368C176.123 285.897 175.741 294.466 178.496 302.271C178.519 302.357 178.573 302.432 178.647 302.482C178.721 302.532 178.81 302.554 178.899 302.544C178.988 302.533 179.07 302.491 179.13 302.425C179.19 302.359 179.225 302.274 179.227 302.185C179.772 298.29 179.733 294.344 180.093 290.44C180.761 286.598 181.068 282.7 181.01 278.8Z" fill="#FBF1DD"/>
<path d="M259.878 101.493C260.012 101.445 260.185 101.541 260.31 101.523C260.436 101.506 260.561 101.471 260.691 101.458C260.951 101.442 261.207 101.389 261.453 101.303C261.924 101.138 262.578 100.805 262.66 100.26C262.695 100.121 262.675 99.9744 262.606 99.8492C262.537 99.7241 262.424 99.6296 262.288 99.5847C261.782 99.3727 261.159 99.7448 260.769 100.061C260.582 100.207 260.415 100.377 260.271 100.567C260.194 100.679 260.09 100.775 260.012 100.883C259.938 101.031 259.858 101.176 259.769 101.316C259.709 101.385 259.787 101.532 259.878 101.493Z" fill="#FBF1DD"/>
<path d="M252.552 106.495C252.868 106.469 253.181 106.413 253.486 106.327C254.059 106.178 254.614 105.97 255.144 105.708C256.243 105.336 257.203 104.639 257.896 103.709C258.181 103.133 257.744 102.311 257.03 102.523C256.922 102.558 256.814 102.601 256.71 102.644C256.537 102.67 256.048 102.709 255.927 102.739C255.78 102.775 255.636 102.818 255.494 102.869C255.061 103.025 254.629 103.211 254.196 103.401C253.37 103.732 252.582 104.152 251.846 104.652C251.697 104.799 251.594 104.986 251.55 105.191C251.506 105.395 251.522 105.609 251.597 105.804C251.671 106 251.802 106.169 251.971 106.292C252.141 106.415 252.343 106.485 252.552 106.495Z" fill="#FBF1DD"/>
<path d="M231.115 110.225C231.416 112.324 231.989 114.375 232.82 116.326C233.313 118.559 233.3 120.861 233.785 123.085C233.795 123.127 233.818 123.165 233.85 123.194C233.883 123.224 233.923 123.243 233.966 123.249C234.009 123.256 234.053 123.249 234.092 123.231C234.131 123.213 234.164 123.183 234.187 123.146C235.063 120.947 235.269 118.538 234.78 116.222C234.451 114.154 233.871 110.965 231.963 109.77C231.88 109.721 231.785 109.694 231.688 109.692C231.592 109.69 231.496 109.713 231.411 109.759C231.326 109.804 231.254 109.871 231.202 109.953C231.15 110.034 231.12 110.128 231.115 110.225Z" fill="white"/>
<path d="M-64.7709 64.547H-64.4983C-62.0361 64.4951 -59.1585 64.3654 -55.8439 64.2096C-39.2188 63.448 -14.095 62.2969 -0.373405 70.246C-0.0746994 70.4186 0.183678 70.6529 0.384529 70.9333C0.585381 71.2138 0.724014 71.534 0.791199 71.8724C0.858376 72.2108 0.852562 72.5595 0.774094 72.8954C0.695625 73.2314 0.546318 73.5466 0.336197 73.8202C-11.1352 88.7967 -8.39608 114.063 6.85731 133.891C11.5193 140.307 17.4121 145.731 24.1921 149.846C30.9722 153.961 38.5037 156.685 46.3474 157.859C61.226 159.2 74.9902 166.307 84.6994 177.66C85.2836 178.357 85.8937 179.075 86.5168 179.824L86.638 179.98C89.6887 184.358 91.8553 189.289 93.0163 194.497C94.3144 199.257 94.9376 201.248 97.8974 202.126C107.586 205.012 120.741 217.544 125.946 222.797L127.677 224.563L127.725 224.61C140.706 237.921 155.129 252.166 170.659 267.017C189.699 285.191 317.853 473.286 334.829 498.245L336.621 496.428C331.428 485.649 299.839 420.217 268.757 362.328C231.933 293.72 204.139 251.197 197.683 241.517C193.74 244.232 189.241 246.034 184.513 246.79C179.786 247.546 174.949 247.238 170.356 245.887C167.205 244.963 164.18 243.655 161.347 241.993C131.477 223.275 106.507 197.696 88.516 167.383C82.2 156.229 79.8538 143.262 81.8608 130.602C82.7413 122.719 82.0434 114.739 79.8079 107.129C77.5724 99.518 73.8441 92.4287 68.8402 86.274C61.8337 76.9913 52.4575 69.7658 41.6957 65.3562C37.9189 63.8633 33.9662 62.8613 29.9343 62.3748C29.8543 62.3664 29.7748 62.3534 29.6963 62.3359C24.5124 61.3399 19.277 60.6334 14.0145 60.2198C-12.3224 58.1128 -38.8231 59.5684 -64.7709 64.547ZM38.1517 70.1032L38.6752 70.2504C49.2826 73.7454 58.5811 80.3742 65.3438 89.2622C72.1066 98.1501 76.0158 108.88 76.5556 120.035C76.8203 124.895 75.9324 129.749 73.9644 134.201C71.9964 138.653 69.0041 142.576 65.2313 145.652C50.1683 157.24 25.633 150.702 10.5397 131.074C-4.55354 111.445 -4.57514 86.0705 10.4879 74.4736C14.4282 71.6165 18.9882 69.7313 23.7958 68.9718C28.6034 68.2123 33.5224 68.6 38.1517 70.1032Z" fill="white"/>
<path d="M-72.6551 62.7461C-72.7497 63.5058 -72.6829 64.2771 -72.4593 65.0093C-72.2356 65.7415 -71.8599 66.4182 -71.3569 66.9954C-70.4446 67.8867 -69.3452 68.5634 -68.1386 68.9766C-66.9321 69.3898 -65.6485 69.529 -64.3814 69.384C-61.8543 69.3321 -58.808 69.1936 -55.5799 69.0465C-40.4823 68.3498 -18.1323 67.3157 -5.12469 73.218C-15.973 90.0941 -12.7535 116.282 3.05807 136.828C8.12411 143.765 14.5217 149.622 21.8772 154.058C29.2326 158.495 37.3983 161.421 45.8974 162.666C59.5231 163.878 72.1333 170.375 81.03 180.766C81.6011 181.446 82.194 182.142 82.7998 182.856C85.4729 186.743 87.3657 191.112 88.3732 195.721C89.6713 200.516 90.883 205.046 96.556 206.738C105.409 209.378 118.685 222.281 122.519 226.159L124.185 227.89L124.263 227.967C137.245 241.291 151.736 255.597 167.327 270.491C186.912 289.197 331.047 501.239 332.501 503.381C332.703 503.677 332.967 503.925 333.276 504.107C333.585 504.288 333.93 504.399 334.286 504.431C334.643 504.464 335.003 504.417 335.339 504.293C335.675 504.17 335.98 503.974 336.231 503.719L341.29 498.582C341.639 498.228 341.871 497.774 341.953 497.283C342.035 496.792 341.963 496.288 341.748 495.839C341.402 495.116 306.906 423.098 273.045 360.008C230.963 281.594 200.578 237.067 200.275 236.63C200.077 236.342 199.82 236.1 199.52 235.921C199.22 235.741 198.885 235.629 198.538 235.591C198.191 235.553 197.839 235.591 197.508 235.702C197.177 235.812 196.873 235.993 196.618 236.232C192.026 239.956 186.363 242.113 180.458 242.387C174.552 242.661 168.713 241.038 163.796 237.756C134.657 219.486 110.299 194.524 92.748 164.946C86.974 154.75 84.8292 142.897 86.664 131.324C87.6438 122.791 86.9136 114.149 84.516 105.902C82.1185 97.6554 78.1016 89.9687 72.7001 83.2916C65.1879 73.2758 55.0821 65.5028 43.4742 60.8119C41.8962 60.1974 40.3095 59.6608 38.7142 59.2021C36.0622 58.4301 33.3515 57.8758 30.6093 57.5448C25.2662 56.5248 19.8705 55.8024 14.4472 55.3812C-14.0654 53.1331 -42.7529 54.9572 -70.7511 60.7988C-71.227 60.8952 -71.663 61.1325 -72.0025 61.4797C-72.342 61.8269 -72.5693 62.2681 -72.6551 62.7461ZM29.9516 62.3133C33.9835 62.7999 37.9362 63.8019 41.713 65.2948C52.4748 69.7044 61.851 76.9298 68.8575 86.2125C73.8614 92.3672 77.5897 99.4566 79.8252 107.067C82.0607 114.678 82.7586 122.657 81.8781 130.54C79.8711 143.201 82.2173 156.167 88.5333 167.322C106.525 197.635 131.494 223.214 161.365 241.931C164.197 243.593 167.223 244.901 170.374 245.826C174.967 247.176 179.803 247.485 184.531 246.729C189.258 245.973 193.757 244.171 197.7 241.455C204.156 251.135 231.95 293.659 268.774 362.266C299.844 420.156 331.454 485.592 336.638 496.367L334.846 498.184C317.871 473.225 189.708 285.13 170.677 266.955C155.146 252.117 140.715 237.872 127.742 224.549L127.695 224.501L125.964 222.736C120.771 217.483 107.603 204.951 97.9147 202.065C94.9549 201.199 94.3188 199.209 93.0336 194.436C91.8727 189.228 89.7061 184.296 86.6553 179.918L86.5342 179.762C85.9111 179.031 85.3009 178.313 84.7167 177.599C75.0075 166.245 61.2433 159.139 46.3647 157.797C38.521 156.623 30.9895 153.899 24.2094 149.784C17.4294 145.669 11.5366 140.245 6.87462 133.829C-8.37878 113.998 -11.1178 88.7353 0.353577 73.7589C0.563698 73.4853 0.712936 73.1699 0.791405 72.834C0.869873 72.498 0.875755 72.1493 0.808571 71.8109C0.741394 71.4726 0.602692 71.1524 0.40184 70.8719C0.200989 70.5914 -0.0573883 70.3571 -0.356094 70.1845C-14.0777 62.2355 -39.2014 63.3865 -55.8266 64.1481C-59.1628 64.3039 -62.0404 64.4337 -64.481 64.4857H-64.7536C-38.8064 59.4922 -12.3041 58.022 14.0361 60.1151C19.2986 60.5288 24.534 61.2353 29.718 62.2312C29.7899 62.2627 29.8636 62.2901 29.9386 62.3133H29.9516Z" fill="#FBF1DD"/>
<path d="M10.5398 131.073C25.6331 150.701 50.1683 157.239 65.2313 145.651C69.0041 142.576 71.9965 138.652 73.9645 134.2C75.9324 129.748 76.8204 124.894 76.5556 120.034C76.0158 108.879 72.1066 98.1494 65.3438 89.2614C58.5811 80.3735 49.2826 73.7447 38.6752 70.2496L38.1517 70.1025C33.5225 68.5992 28.6034 68.2115 23.7958 68.9711C18.9882 69.7306 14.4282 71.6157 10.4879 74.4729C-4.57512 86.0568 -4.55352 111.449 10.5398 131.073ZM61.3368 92.0024C67.7312 99.9983 71.3736 109.845 71.7221 120.077C72.1202 124.242 71.445 128.439 69.761 132.269C68.077 136.098 65.4403 139.433 62.1021 141.954C58.764 144.476 54.8356 146.101 50.6915 146.673C46.5474 147.246 42.3257 146.748 38.4286 145.227C28.8192 142.192 20.411 136.205 14.3996 128.117C0.937699 110.614 0.513653 88.2723 13.4606 78.3111C16.8117 75.9211 20.6793 74.3555 24.7492 73.7412C28.8192 73.1269 32.9767 73.4814 36.8838 74.7758C46.6712 77.7474 55.2439 83.7867 61.3368 92.0024Z" fill="#FBF1DD"/>
<path d="M186.912 277.492C186.463 275.635 186.565 273.687 187.205 271.886C187.845 270.086 188.996 268.511 190.517 267.354C192.038 266.197 193.863 265.508 195.769 265.371C197.675 265.234 199.579 265.656 201.25 266.584C202.92 267.512 204.284 268.906 205.175 270.597C206.065 272.287 206.444 274.201 206.265 276.103C206.086 278.006 205.357 279.815 204.166 281.31C202.975 282.804 201.375 283.92 199.561 284.52C196.952 285.261 194.155 284.937 191.784 283.62C189.413 282.303 187.661 280.099 186.912 277.492Z" fill="white"/>
<path d="M175.463 269.298C175.506 265.914 178.994 262.556 185.636 258.553C192.421 254.464 198.881 250.332 205.286 255.801L196.865 244.313C196.865 244.313 178.777 256.035 163.429 245.831C148.08 235.628 115.738 211.646 115.738 211.646C115.738 211.646 156.687 250.95 175.566 270.453C175.503 270.071 175.468 269.685 175.463 269.298Z" fill="#FBF1DD"/>
<path d="M199.011 261.889C196.755 261.227 194.35 261.27 192.118 262.01C188.974 263.176 186.419 265.539 185.012 268.583C183.605 271.627 183.461 275.104 184.61 278.254C185.563 281.469 187.751 284.176 190.695 285.782C193.639 287.387 197.099 287.762 200.318 286.822C201.878 286.301 203.311 285.459 204.525 284.35C205.739 283.241 206.707 281.89 207.367 280.383C208.724 277.283 208.888 273.79 207.825 270.576C206.763 267.363 204.55 264.655 201.612 262.975C200.789 262.515 199.917 262.15 199.011 261.889ZM203.226 272.101C203.929 274.156 203.833 276.401 202.958 278.388C202.324 279.824 201.233 281.009 199.855 281.759C198.466 281.736 197.108 281.341 195.922 280.616C194.737 279.891 193.767 278.862 193.113 277.636C192.809 277.112 192.543 276.566 192.317 276.004C195.358 276.912 198.624 276.688 201.512 275.372C201.807 275.234 201.893 274.689 201.473 274.645C198.103 274.393 194.795 273.6 191.677 272.296C191.845 270.408 192.547 268.607 193.702 267.103C193.827 266.925 193.912 266.721 193.948 266.506C194.836 266.265 195.762 266.202 196.674 266.32C197.586 266.438 198.465 266.735 199.262 267.194C201.156 268.27 202.572 270.024 203.226 272.101Z" fill="#FBF1DD"/>
<path d="M43.2275 155.687C51.8309 156.789 60.2732 158.909 68.3773 162C70.8516 163.659 73.1873 165.515 75.3614 167.552C79.6805 171.208 83.7865 175.109 87.6593 179.235C87.7978 179.387 87.9146 179.551 88.0487 179.707C91.1369 183.38 93.4877 187.614 94.9723 192.178C95.9026 195.367 96.318 199.287 99.4076 201.265C101.263 202.171 103.184 202.936 105.154 203.554C107.426 204.545 109.719 205.432 112.004 206.388C112.033 206.403 112.067 206.405 112.098 206.394C112.129 206.384 112.154 206.361 112.169 206.332C112.183 206.303 112.185 206.269 112.175 206.238C112.164 206.207 112.142 206.182 112.112 206.168C107.718 204.152 103.776 201.268 100.524 197.691C98.8159 194.221 97.333 190.645 96.0844 186.985C95.7216 185.951 95.2967 184.939 94.8122 183.956C92.9628 178.494 90.0919 173.434 86.3525 169.045C84.2624 166.608 81.0906 163.571 78.4596 160.204C76.5874 157.182 75.4055 153.783 74.9979 150.251C75.0623 144.438 76.14 138.68 78.1827 133.237C78.1827 133.215 78.1567 133.198 78.1437 133.237C77.5553 134.102 76.9884 134.968 76.4519 135.916C75.8191 136.989 75.2414 138.094 74.7209 139.226C68.5893 149.295 56.6548 152.779 45.1661 153.073C35.1097 151.156 25.1658 148.906 17.1432 142.017C17.1025 141.979 17.0491 141.957 16.9933 141.956C16.9376 141.955 16.8834 141.975 16.8413 142.011C16.7993 142.048 16.7723 142.099 16.7657 142.154C16.7591 142.21 16.7733 142.266 16.8056 142.311C22.7599 150.922 33.3961 153.99 43.2275 155.687Z" fill="#FBF1DD"/>
<path d="M-15.5922 63.6128C-11.4348 64.2725 -7.35884 65.3705 -3.43266 66.8885C-1.48794 67.5157 0.376755 68.3682 2.12345 69.4286C5.06595 71.4927 2.60374 73.2278 0.916132 75.4866C-3.6058 81.4928 -4.33709 90.3333 -5.57467 97.4992C-5.60497 97.6766 -5.33668 97.7891 -5.26745 97.6073C-3.55394 91.9846 -1.5433 86.4568 0.756014 81.0471C2.32246 78.07 7.30313 74.3876 7.02186 70.6618C6.77521 67.3429 1.79892 66.1399 -0.710862 65.2658C-5.49471 63.6509 -10.5682 63.0755 -15.5922 63.5781V63.6128Z" fill="#FBF1DD"/>
<path d="M7.07373 66.7708C7.46282 67.0843 7.88508 67.3542 8.33295 67.5757C8.73383 67.8795 9.0731 68.2569 9.33255 68.6878C9.74001 69.5202 10.1936 70.3293 10.6913 71.1111C10.7437 71.1845 10.822 71.2351 10.9104 71.2528C10.9988 71.2705 11.0907 71.2538 11.1673 71.2062C13.8847 69.4969 10.3581 64.2827 7.80506 64.6808C7.57149 64.6999 7.34843 64.7864 7.163 64.9297C6.97758 65.073 6.8377 65.2671 6.7603 65.4883C6.6829 65.7095 6.67133 65.9484 6.72696 66.1761C6.78258 66.4037 6.90305 66.6103 7.07373 66.7708Z" fill="#FBF1DD"/>
<path d="M13.1448 66.6411C13.1881 66.6411 13.2659 66.7018 13.2746 66.7061L13.3352 66.7624C13.452 66.9817 13.616 67.1723 13.8155 67.3206L13.8631 67.3637C13.9176 67.4348 13.9869 67.4932 14.0663 67.5346C14.1456 67.5761 14.2331 67.5997 14.3225 67.6038C14.412 67.6079 14.5012 67.5925 14.5841 67.5585C14.6669 67.5245 14.7413 67.4728 14.8021 67.4071C14.8729 67.3405 14.9381 67.2682 14.9968 67.1908V67.2166V67.1864C15.0518 67.1118 15.0969 67.0303 15.131 66.9441C15.5637 66.0224 14.7242 65.0358 13.7809 64.8065C13.5495 64.7623 13.31 64.8028 13.106 64.9204C12.9019 65.0381 12.7469 65.2252 12.6693 65.4476C12.5917 65.67 12.5966 65.9128 12.683 66.1319C12.7695 66.351 12.9318 66.5317 13.1404 66.6411H13.1448Z" fill="#FBF1DD"/>
<path d="M208.449 319.719C212.858 318.02 217.508 317.031 222.227 316.789C226.259 318.021 229.944 320.186 232.984 323.107C234.62 324.968 236.286 326.768 237.653 328.542C240.371 332.073 243.004 335.663 245.555 339.312C251.833 348.832 257.359 358.871 263.53 368.465C264.759 370.931 266.027 373.38 267.424 375.708C270.285 381.161 273.725 386.457 276.62 391.667C281.414 400.321 286.347 408.868 291.129 417.518C300.501 434.476 309.229 452.192 319.801 468.432C319.983 468.704 320.48 468.488 320.337 468.172L320.229 467.938C321.03 469.436 321.462 470.253 321.462 470.253C321.462 470.253 320.835 469.02 319.697 466.792C315.201 456.969 310.043 447.371 304.772 437.851C281.838 393.679 242.569 319.286 234.849 312.921C223.81 303.833 204.078 314.331 204.078 314.331L206.294 317.408C206.175 317.716 206.146 318.05 206.209 318.374C206.271 318.697 206.424 318.996 206.649 319.237C206.873 319.478 207.161 319.651 207.48 319.736C207.798 319.822 208.134 319.815 208.449 319.719Z" fill="#FBF1DD"/>
<path d="M238.644 333.012C233.084 325.353 225.23 314.808 214.412 319.061C214.044 319.208 214.113 319.818 214.546 319.779C226.593 318.685 233.94 331.675 239.847 340.152C246.455 349.637 252.461 359.56 259.259 368.906C259.367 369.053 259.631 368.945 259.557 368.763C254.116 356.015 247.09 344.003 238.644 333.012Z" fill="#FBF1DD"/>
<path d="M222.919 323.592C221.945 323.042 221.002 324.457 221.833 325.201C224.399 327.443 227.155 329.412 229.622 331.796C232.088 334.18 234.196 336.742 236.511 339.187C236.727 339.412 237.169 339.131 237.034 338.845C233.929 332.485 229.02 327.18 222.919 323.592Z" fill="#FBF1DD"/>
<path d="M225.282 331C225.19 330.981 225.095 330.986 225.006 331.016C224.918 331.045 224.838 331.097 224.775 331.167C224.713 331.236 224.669 331.321 224.65 331.412C224.63 331.504 224.635 331.599 224.663 331.688C225.065 333.038 226.801 334.037 227.952 334.717C228.358 334.95 228.817 334.414 228.549 334.037C227.8 332.921 226.658 331.29 225.282 331Z" fill="#FBF1DD"/>
<path d="M290.203 418.976C287.26 414.073 284.119 407.128 279.333 403.831C279.299 403.803 279.258 403.787 279.215 403.785C279.172 403.783 279.129 403.794 279.093 403.818C279.057 403.841 279.029 403.876 279.014 403.916C278.999 403.957 278.997 404.001 279.008 404.043C280.25 409.529 284.954 414.809 287.905 419.547C291.319 425.029 294.889 430.391 298.368 435.83C298.485 436.016 298.801 435.865 298.727 435.657C296.195 429.944 293.349 424.375 290.203 418.976Z" fill="#FBF1DD"/>
<path d="M273.668 393.78C273.566 393.696 273.44 393.646 273.307 393.64C273.175 393.633 273.044 393.668 272.934 393.742C272.823 393.815 272.739 393.921 272.694 394.046C272.648 394.17 272.644 394.306 272.682 394.433C273.911 397.223 275.659 399.754 277.831 401.893C277.931 402.019 278.19 401.932 278.108 401.759C277.149 398.841 275.642 396.133 273.668 393.78Z" fill="#FBF1DD"/>
<path d="M270.57 388.931C270.285 388.836 270.086 389.165 270.137 389.403C270.303 389.825 270.51 390.229 270.756 390.61C270.984 391.031 271.189 391.465 271.371 391.908C271.396 391.984 271.448 392.049 271.518 392.09C271.587 392.131 271.669 392.146 271.748 392.131C271.827 392.116 271.899 392.073 271.948 392.01C271.998 391.947 272.024 391.867 272.02 391.787C272.108 391.219 272.016 390.638 271.756 390.125C271.496 389.612 271.081 389.195 270.57 388.931Z" fill="#FBF1DD"/>
<path d="M183.948 264.697C186.187 262.4 188.914 260.636 191.928 259.535C192.46 259.271 192.144 258.557 191.711 258.414C189.65 257.913 187.481 258.12 185.552 259.002C183.623 259.885 182.048 261.391 181.079 263.278C179.9 265.054 179.277 267.142 179.291 269.274C179.305 271.406 179.955 273.486 181.157 275.247C181.339 275.515 181.854 275.394 181.798 275.035C181.456 273.255 181.471 271.425 181.84 269.651C182.209 267.877 182.926 266.193 183.948 264.697Z" fill="#FBF1DD"/>
<path d="M202.789 282.745C202.789 282.745 202.789 282.698 202.759 282.711C197.025 286.67 190.313 281.413 189.02 275.497C188.737 274.108 188.783 272.672 189.154 271.304C189.526 269.935 190.212 268.673 191.159 267.618C192.106 266.562 193.286 265.743 194.606 265.225C195.926 264.707 197.348 264.506 198.76 264.636C199.137 264.636 199.193 264.026 198.816 263.974C197.129 263.692 195.399 263.829 193.777 264.374C192.156 264.918 190.693 265.854 189.519 267.097C188.344 268.34 187.493 269.854 187.042 271.504C186.59 273.154 186.552 274.889 186.93 276.558C188.708 282.797 197.618 289.721 202.789 282.745Z" fill="white"/>
<path d="M59.9738 156.063C61.8836 156.58 63.8247 156.973 65.7852 157.24C67.8147 157.789 69.7793 158.624 71.8433 159.1C71.9299 159.122 72.025 159.005 71.9601 158.931C70.406 157.419 68.5298 156.277 66.4721 155.592C64.4143 154.907 62.2283 154.697 60.0776 154.976C59.9682 155.013 59.8717 155.081 59.7999 155.171C59.7281 155.262 59.684 155.371 59.673 155.486C59.662 155.601 59.6846 155.716 59.738 155.819C59.7913 155.921 59.8733 156.006 59.9738 156.063Z" fill="white"/>
<path d="M67.5464 154.207C67.9791 154.298 68.3729 153.969 68.8013 153.952C69.2212 153.928 69.6367 154.048 69.9783 154.294C70.0431 154.355 70.127 154.393 70.2161 154.4C70.3052 154.407 70.394 154.383 70.4676 154.332C70.5411 154.281 70.595 154.207 70.6201 154.121C70.6453 154.035 70.6402 153.943 70.6058 153.861C70.4817 153.506 70.2542 153.197 69.9527 152.972C69.6511 152.748 69.2893 152.619 68.9138 152.602C68.269 152.559 67.0704 152.887 67.1829 153.731C67.1843 153.839 67.2204 153.944 67.2859 154.029C67.3513 154.115 67.4427 154.177 67.5464 154.207Z" fill="white"/>
</g>
</svg>
