<svg width="51" height="15" viewBox="0 0 51 15" fill="none" xmlns="http://www.w3.org/2000/svg">
<path d="M30.4214 0C27.1971 0 24.5814 2.82951 24.5814 6.31705C24.5814 9.80459 27.1971 12.6341 30.4214 12.6341C33.6457 12.6341 36.2614 9.80459 36.2614 6.31705C36.2614 2.82951 33.6457 0 30.4214 0Z" fill="#cc7a00"/>
<path d="M44.0466 7.36987C46.6006 7.36987 49.2163 6.84345 50.8613 3.1585C50.8613 3.1585 52.3213 14.7398 38.2066 14.7398C32.49 14.7398 28.3239 13.4402 25.8522 10.2487C27.4973 7.65364 30.6517 5.15314 34.3819 1.67383C35.6362 3.04335 40.2753 7.36987 44.0466 7.36987Z" fill="#cc7a00"/>
<path d="M20.8471 0C17.6228 0 15.0071 2.82951 15.0071 6.31705C15.0071 9.80459 17.6228 12.6341 20.8471 12.6341C24.0714 12.6341 26.6871 9.80459 26.6871 6.31705C26.6871 2.82951 24.0714 0 20.8471 0Z" fill="#cc7a00"/>
<path d="M16.8866 1.67383C20.6168 5.14903 23.7712 7.65364 25.4163 10.2487C22.9446 13.4402 18.7784 14.7398 13.0618 14.7398C-1.05284 14.7398 0.407157 3.1585 0.407157 3.1585C2.05222 6.84345 4.66788 7.36987 7.22184 7.36987C10.9932 7.36987 15.6322 3.04335 16.8866 1.67383Z" fill="#cc7a00"/>
</svg>
